<?xml version="1.0" encoding="utf-8"?>
<!-- Generator: Adobe Illustrator 18.0.0, SVG Export Plug-In . SVG Version: 6.00 Build 0)  -->
<!DOCTYPE svg PUBLIC "-//W3C//DTD SVG 1.1//EN" "http://www.w3.org/Graphics/SVG/1.1/DTD/svg11.dtd">
<svg version="1.1" id="Layer_1" xmlns="http://www.w3.org/2000/svg" xmlns:xlink="http://www.w3.org/1999/xlink" x="0px" y="0px"
	 viewBox="93 191.7 412.9 330.2" enable-background="new 93 191.7 412.9 330.2" xml:space="preserve">
<g>
	<g>
		<path fill="#565656" d="M347.9,254.4L347.9,254.4c-5.6,12.3-20.5,40.7-52.1,63.9c-27,20-69.1,21.2-95.3,19.6l20.3,37.2
			C305.6,369.3,337.6,290.7,347.9,254.4z"/>
		<path fill="#565656" d="M340.3,250.8h-94.7L202.2,325C292.7,327.5,330.7,268.9,340.3,250.8z"/>
		<path fill="#565656" d="M360.4,276.2c1.8,17.6,3.3,38.3,1.5,50.6c-3.8,24-24,66.4-58.8,92.9h42.1l49-85.7L360.4,276.2z"/>
		<path fill="#565656" d="M350.5,265.1v0.7c0,0-1.1,39.7-41.4,82.9c-27.4,29.6-62.3,36.3-81.7,37.6l18.3,33.6h39.9
			C315.2,395.8,361,344.6,350.5,265.1z"/>
	</g>
	<path fill="#565656" d="M335,207.6c-0.7,0.9,0.9,3.4,0.9,3.4l-2.4,3.6c1.6-3.6-0.7-6-0.7-6c-5.1-4.5-6,6.9-6,6.9
		c1.5-3.3,3.4-2.4,3.4-2.4c3.1,1.1,0,5.8,0,5.8c-4,6.9-7.1,6.5-7.1,6.5c-8,1.3-8.9-10-8.9-10c-14,12.3-15.4-2.4-15.4-2.4
		c-0.2-5.3,1.1-6.7,1.1-6.7c2.7-3.6,5.1,2.9,5.1,2.9c5.8-10-5.3-7.4-5.3-7.4c2.4-6-2.5-9.3-2.5-9.3s-5.1,3.1-2.4,9.3
		c0,0-10.9-2.5-5.3,7.4c0,0,2.2-5.8,5.1-2.9c0,0,1.3,1.1,1.1,6.7c0,0-0.9,14.5-15.4,2.4c0,0-1.1,11.3-8.9,10c0,0-3.1,0.4-7.1-6.5
		c0,0-3.1-4.7,0-5.8c0,0,2-0.9,3.4,2.4c0,0-0.4-12-6-6.9c0,0-2.4,2.4-0.7,6l-2.4-3.6c0,0,1.6-2.5,0.9-3.4c-0.7-0.9-5.1-2.4-6.7-2
		c-0.4,0,17.8,31,17.8,31s9.4-7.8,26.7-7.1c17.2-0.5,26.7,7.1,26.7,7.1s18.3-31,17.8-31C340.1,205.2,335.8,206.7,335,207.6z"/>
</g>
<g>
	<polygon fill="#565656" points="93,456.4 131,456.4 131,469 109.5,469 109.5,481.1 129.8,481.1 129.8,493.1 109.5,493.1 
		109.5,519.7 93,519.7 	"/>
	<path fill="#565656" d="M173.9,456.4v10.2h-19.7v10.7c2.5-2.9,5.6-4.4,9.5-4.4c4.4,0,7.7,1.2,9.8,3.7c2.3,2.5,3.3,7.1,3.3,14.1v9
		c0,4.5-0.2,7.8-0.6,9.8c-0.5,2-1.3,4-2.8,5.8c-1.4,1.8-3.4,3.1-5.9,4c-2.6,0.9-5.6,1.4-9.2,1.4c-4,0-7.7-0.6-10.7-2.1
		c-3.1-1.4-5.3-3.5-6.6-6.3c-1.3-2.8-2-7.3-2-13.1v-3.4h15.9v4c0,4,0.1,7,0.5,8.7c0.3,1.7,1.2,2.6,2.9,2.6c0.7,0,1.4-0.3,1.9-0.7
		c0.5-0.5,0.7-1,0.7-1.7s0.1-3,0.1-7.5v-12.5c0-2.4-0.3-4-0.7-4.9c-0.5-0.8-1.3-1.3-2.5-1.3c-0.7,0-1.3,0.2-1.8,0.6
		c-0.6,0.5-0.8,0.9-0.9,1.4c-0.1,0.5-0.2,1.7-0.2,3.5h-15.6l0.6-32h34L173.9,456.4L173.9,456.4z"/>
	<g>
		<path fill="#565656" d="M227.4,504.6h-21.9l-5,16.3h-4.7l18.5-58.2h4.2l18.5,58.2h-4.8L227.4,504.6z M206.9,500.3h19.2l-9.6-31.2
			L206.9,500.3z"/>
		<path fill="#565656" d="M278.3,502.7c-0.5,6.5-2.2,11.3-5.3,14.3c-3.1,3-7.4,4.6-12.8,4.6c-2.8,0-5.3-0.6-7.6-1.7
			s-4.1-2.7-5.7-4.8s-2.8-4.6-3.6-7.5c-0.8-2.9-1.2-6.2-1.2-9.9v-12.5c0-3.6,0.5-6.9,1.2-9.8c0.8-2.9,2.1-5.4,3.7-7.4
			c1.6-2,3.5-3.5,5.8-4.7c2.3-1,5-1.7,7.8-1.7c2.7,0,5.1,0.4,7.1,1.1c2.1,0.7,3.9,1.9,5.4,3.4c1.6,1.6,2.8,3.5,3.6,5.9
			c0.8,2.4,1.4,5.2,1.7,8.5h-4.7c-0.2-2.7-0.6-5-1.2-6.8c-0.6-1.9-1.4-3.4-2.6-4.6c-1-1.1-2.4-2-3.9-2.6c-1.6-0.6-3.3-0.7-5.4-0.7
			c-2.3,0-4.2,0.5-6,1.3c-1.7,0.8-3.2,2.1-4.4,3.7c-1.2,1.6-2.1,3.6-2.7,6c-0.6,2.4-0.8,5.1-0.8,8.1v12.6c0,2.9,0.3,5.6,0.8,8.1
			c0.6,2.4,1.4,4.5,2.6,6.2c1.1,1.7,2.6,3,4.2,4c1.7,0.9,3.7,1.4,6,1.4c2.1,0,4-0.3,5.6-0.7c1.7-0.5,2.9-1.3,4-2.5
			c1.1-1.1,2-2.7,2.6-4.6c0.6-1.9,1-4.1,1.2-7h4.5L278.3,502.7L278.3,502.7z"/>
		<path fill="#565656" d="M314,504.6h-21.9l-5,16.3h-4.8l18.5-58.2h4.2l18.5,58.2h-4.8L314,504.6z M293.6,500.3h19.2l-9.6-31.2
			L293.6,500.3z"/>
		<path fill="#565656" d="M330.5,520.9v-58.2h13.7c3,0,5.9,0.5,8.5,1.6c2.6,1,4.8,2.5,6.5,4.5c1.7,2,3.2,4.4,4.1,7.3
			c1,2.9,1.6,6.2,1.6,9.9v11.7c0,3.8-0.5,7.1-1.6,9.9c-1,2.9-2.4,5.3-4.2,7.3c-1.8,2-4,3.4-6.6,4.5c-2.6,1-5.5,1.6-8.6,1.6h-13.3
			V520.9z M335,467v49.6h8.8c2.7,0,5-0.4,6.9-1.2c2-0.8,3.8-2.1,5.2-3.7c1.5-1.6,2.5-3.6,3.2-6c0.7-2.4,1.1-5.1,1.1-8.2v-11.8
			c0-3.1-0.4-5.9-1.1-8.2c-0.7-2.4-1.8-4.2-3.2-5.9c-1.4-1.7-3-2.8-5.1-3.6c-2-0.7-4.2-1.2-6.7-1.2L335,467L335,467L335,467z"/>
		<path fill="#565656" d="M402.2,493h-22.6v23.6h26v4.2H375v-58.2h30.4v4.2h-25.8v21.9h22.6V493z"/>
		<path fill="#565656" d="M419.7,462.7l17.6,51.3l17.7-51.3h6.1v58.2h-4.6v-25.4l0.4-25.4l-17.8,50.6h-3.5l-17.7-50.4l0.4,25.1v25.4
			h-4.6v-58.1L419.7,462.7L419.7,462.7z"/>
		<path fill="#565656" d="M486.2,494.3l14.5-31.7h5.2l-17.5,36.3v22h-4.7v-22l-17.5-36.3h5.3L486.2,494.3z"/>
	</g>
</g>
</svg>
