<?xml version="1.0" encoding="utf-8"?>
<!-- Generator: Adobe Illustrator 18.0.0, SVG Export Plug-In . SVG Version: 6.00 Build 0)  -->
<!DOCTYPE svg PUBLIC "-//W3C//DTD SVG 1.1//EN" "http://www.w3.org/Graphics/SVG/1.1/DTD/svg11.dtd">
<svg version="1.1" id="Layer_1" xmlns="http://www.w3.org/2000/svg" xmlns:xlink="http://www.w3.org/1999/xlink" x="0px" y="0px"
	 viewBox="0 371.7 583.5 119.6" enable-background="new 0 371.7 583.5 119.6" xml:space="preserve">
<g>
	<g>
		<path fill="#FFFFFF" d="M77.5,404.2L77.5,404.2c-2.9,6.5-10.8,21.3-27.4,33.6C35.9,448.3,13.8,448.9,0,448.1l10.7,19.5
			C55.2,464.6,72,423.3,77.5,404.2z"/>
		<path fill="#FFFFFF" d="M73.4,402.3H23.7l-22.8,39C48.4,442.6,68.4,411.9,73.4,402.3z"/>
		<path fill="#FFFFFF" d="M84,415.6c1,9.2,1.7,20.1,0.8,26.6c-2,12.6-12.6,34.9-30.9,48.9h22.1l25.7-45L84,415.6z"/>
		<path fill="#FFFFFF" d="M78.7,409.8v0.4c0,0-0.5,20.9-21.8,43.6c-14.4,15.5-32.8,19.1-43,19.7l9.7,17.7h21
			C60.2,478.5,84.3,451.6,78.7,409.8z"/>
	</g>
	<path fill="#FFFFFF" d="M70.6,379.6c-0.4,0.5,0.5,1.8,0.5,1.8l-1.3,1.9c0.8-1.9-0.4-3.1-0.4-3.1c-2.6-2.4-3.1,3.6-3.1,3.6
		c0.8-1.7,1.8-1.3,1.8-1.3c1.6,0.5,0,3,0,3c-2.1,3.6-3.7,3.5-3.7,3.5c-4.2,0.7-4.7-5.2-4.7-5.2c-7.3,6.5-8.1-1.3-8.1-1.3
		c-0.1-2.7,0.6-3.6,0.6-3.6c1.4-1.9,2.6,1.5,2.6,1.5c3-5.3-2.7-3.9-2.7-3.9c1.3-3.2-1.4-4.8-1.4-4.8s-2.6,1.7-1.3,4.8
		c0,0-5.7-1.4-2.7,3.9c0,0,1.1-3,2.6-1.5c0,0,0.7,0.6,0.6,3.6c0,0-0.5,7.6-8.1,1.3c0,0-0.5,5.9-4.7,5.2c0,0-1.6,0.2-3.7-3.5
		c0,0-1.6-2.5,0-3c0,0,1.1-0.5,1.8,1.3c0,0-0.2-6.3-3.2-3.6c0,0-1.2,1.2-0.4,3.1l-1.3-1.9c0,0,0.8-1.4,0.5-1.8
		c-0.4-0.5-2.6-1.2-3.6-1.1c-0.2,0,9.4,16.3,9.4,16.3s4.9-4.1,14-3.7c9.1-0.3,14,3.7,14,3.7s9.6-16.3,9.4-16.3
		C73.3,378.4,71,379.1,70.6,379.6z"/>
</g>
<g>
	<polygon fill="#FFFFFF" points="134,406.7 175.3,406.7 175.3,420.5 152,420.5 152,433.6 174,433.6 174,446.7 152,446.7 152,475.7 
		134,475.7 	"/>
	<path fill="#FFFFFF" d="M222.1,406.7v11.1h-21.4v11.7c2.7-3.2,6.1-4.8,10.3-4.8c4.8,0,8.4,1.3,10.7,4c2.5,2.7,3.6,7.7,3.6,15.3v9.8
		c0,4.9-0.2,8.5-0.7,10.7s-1.4,4.4-3,6.3c-1.5,2-3.7,3.4-6.4,4.4c-2.8,1-6.1,1.5-10,1.5c-4.4,0-8.4-0.7-11.7-2.3
		c-3.4-1.5-5.8-3.8-7.2-6.9c-1.4-3.1-2.2-7.9-2.2-14.3v-3.7h17.3v4.3c0,4.4,0.1,7.6,0.5,9.5c0.3,1.9,1.3,2.8,3.2,2.8
		c0.8,0,1.5-0.3,2.1-0.8c0.5-0.5,0.8-1.1,0.8-1.8s0.1-3.3,0.1-8.2v-13.6c0-2.6-0.3-4.3-0.8-5.3c-0.5-0.9-1.4-1.4-2.7-1.4
		c-0.8,0-1.4,0.2-2,0.7s-0.9,1-1,1.5c-0.1,0.5-0.2,1.9-0.2,3.8h-17l0.7-34.8h37V406.7z"/>
	<g>
		<path fill="#FFFFFF" d="M280.3,459.2h-23.8l-5.4,17.7H246l20.1-63.3h4.6l20.1,63.3h-5.2L280.3,459.2z M258,454.5h20.9l-10.4-34
			L258,454.5z"/>
		<path fill="#FFFFFF" d="M335.7,457.2c-0.5,7.1-2.4,12.3-5.8,15.6c-3.4,3.3-8.1,5-13.9,5c-3,0-5.8-0.6-8.3-1.8
			c-2.5-1.2-4.5-2.9-6.2-5.2c-1.7-2.3-3-5-3.9-8.2c-0.9-3.2-1.3-6.8-1.3-10.8v-13.6c0-3.9,0.5-7.5,1.3-10.7c0.9-3.2,2.3-5.9,4-8.1
			s3.8-3.8,6.3-5.1c2.5-1.1,5.4-1.8,8.5-1.8c2.9,0,5.5,0.4,7.7,1.2c2.3,0.8,4.2,2.1,5.9,3.7c1.7,1.7,3,3.8,3.9,6.4
			c0.9,2.6,1.5,5.7,1.8,9.3h-5.1c-0.2-2.9-0.7-5.4-1.3-7.4c-0.6-2.1-1.5-3.7-2.8-5c-1.1-1.2-2.6-2.2-4.2-2.8
			c-1.7-0.6-3.6-0.8-5.9-0.8c-2.5,0-4.6,0.5-6.5,1.4c-1.9,0.9-3.5,2.3-4.8,4s-2.3,3.9-2.9,6.5c-0.6,2.6-0.9,5.5-0.9,8.8v13.7
			c0,3.2,0.3,6.1,0.9,8.8c0.6,2.6,1.5,4.9,2.8,6.7c1.2,1.9,2.8,3.3,4.6,4.3s4,1.5,6.5,1.5c2.3,0,4.3-0.3,6.1-0.8s3.2-1.4,4.4-2.7
			c1.2-1.2,2.2-2.9,2.8-5c0.7-2.1,1.1-4.5,1.3-7.6h4.9V457.2z"/>
		<path fill="#FFFFFF" d="M374.6,459.2h-23.8l-5.4,17.7h-5.2l20.1-63.3h4.6l20.1,63.3h-5.2L374.6,459.2z M352.3,454.5h20.9l-10.4-34
			L352.3,454.5z"/>
		<path fill="#FFFFFF" d="M392.5,477v-63.3h14.9c3.3,0,6.4,0.5,9.2,1.7c2.8,1.1,5.2,2.7,7.1,4.9s3.5,4.8,4.5,8
			c1.1,3.2,1.7,6.8,1.7,10.8v12.7c0,4.1-0.5,7.7-1.7,10.8c-1.1,3.2-2.6,5.8-4.6,8c-2,2.2-4.3,3.7-7.2,4.9c-2.8,1.1-6,1.7-9.4,1.7
			H392.5z M397.4,418.3v54h9.6c2.9,0,5.4-0.4,7.5-1.3c2.2-0.9,4.1-2.3,5.7-4s2.7-3.9,3.5-6.5s1.2-5.6,1.2-8.9v-12.8
			c0-3.4-0.4-6.4-1.2-8.9c-0.8-2.6-2-4.6-3.5-6.4s-3.3-3-5.5-3.9c-2.2-0.8-4.6-1.3-7.3-1.3h-10V418.3z"/>
		<path fill="#FFFFFF" d="M470.6,446.6H446v25.7h28.3v4.6H441v-63.3h33.1v4.6H446V442h24.6V446.6z"/>
		<path fill="#FFFFFF" d="M489.6,413.6l19.2,55.8l19.3-55.8h6.6V477h-5v-27.6l0.4-27.6l-19.4,55.1h-3.8L487.6,422l0.4,27.3v27.6h-5
			v-63.2H489.6z"/>
		<path fill="#FFFFFF" d="M562,448l15.8-34.5h5.7l-19,39.5v23.9h-5.1V453l-19-39.5h5.8L562,448z"/>
	</g>
</g>
</svg>
