<?xml version="1.0" encoding="utf-8"?>
<!-- Generator: Adobe Illustrator 18.0.0, SVG Export Plug-In . SVG Version: 6.00 Build 0)  -->
<!DOCTYPE svg PUBLIC "-//W3C//DTD SVG 1.1//EN" "http://www.w3.org/Graphics/SVG/1.1/DTD/svg11.dtd">
<svg version="1.1" id="Layer_1" xmlns="http://www.w3.org/2000/svg" xmlns:xlink="http://www.w3.org/1999/xlink" x="0px" y="0px"
	 viewBox="132.5 261.9 328 189" enable-background="new 132.5 261.9 328 189" xml:space="preserve">
<g>
	<g>
		<path fill="#D8D8D8" d="M324.5,299.4L324.5,299.4c-3.1,6.8-11.3,22.4-28.7,35.2c-14.9,11-38.1,11.7-52.5,10.8l11.2,20.5
			C301.2,362.7,318.8,319.4,324.5,299.4z"/>
		<path fill="#D8D8D8" d="M320.3,297.4h-52.2l-23.9,40.9C294.1,339.7,315,307.4,320.3,297.4z"/>
		<path fill="#D8D8D8" d="M331.4,311.4c1,9.7,1.8,21.1,0.8,27.9c-2.1,13.2-13.2,36.6-32.4,51.2H323l27-47.2L331.4,311.4z"/>
		<path fill="#D8D8D8" d="M325.9,305.3v0.4c0,0-0.6,21.9-22.8,45.7c-15.1,16.3-34.3,20-45,20.7l10.1,18.5h22
			C306.5,377.3,331.7,349.1,325.9,305.3z"/>
	</g>
	<path fill="#D8D8D8" d="M317.4,273.6c-0.4,0.5,0.5,1.9,0.5,1.9l-1.3,2c0.9-2-0.4-3.3-0.4-3.3c-2.8-2.5-3.3,3.8-3.3,3.8
		c0.8-1.8,1.9-1.3,1.9-1.3c1.7,0.6,0,3.2,0,3.2c-2.2,3.8-3.9,3.6-3.9,3.6c-4.4,0.7-4.9-5.5-4.9-5.5c-7.7,6.8-8.5-1.3-8.5-1.3
		c-0.1-2.9,0.6-3.7,0.6-3.7c1.5-2,2.8,1.6,2.8,1.6c3.2-5.5-2.9-4.1-2.9-4.1c1.3-3.3-1.4-5.1-1.4-5.1s-2.8,1.7-1.3,5.1
		c0,0-6-1.4-2.9,4.1c0,0,1.2-3.2,2.8-1.6c0,0,0.7,0.6,0.6,3.7c0,0-0.5,8-8.5,1.3c0,0-0.6,6.2-4.9,5.5c0,0-1.7,0.2-3.9-3.6
		c0,0-1.7-2.6,0-3.2c0,0,1.1-0.5,1.9,1.3c0,0-0.2-6.6-3.3-3.8c0,0-1.3,1.3-0.4,3.3l-1.3-2c0,0,0.9-1.4,0.5-1.9
		c-0.4-0.5-2.8-1.3-3.7-1.1c-0.2,0,9.8,17.1,9.8,17.1s5.2-4.3,14.7-3.9c9.5-0.3,14.7,3.9,14.7,3.9s10.1-17.1,9.8-17.1
		C320.2,272.3,317.8,273.1,317.4,273.6z"/>
</g>
<g>
	<path fill="#D8D8D8" d="M167,420.4c0,0.1,0,0.1-0.1,0.2c-1,1.4-2.3,2.1-3.6,2.1c-1,0-2.2-0.5-3.2-1.3c-0.5-0.4-1.1-1-2.2-1.9
		c-1-0.9-2.1-1.3-3.2-1.3c-1.3,0-2.8,0.6-4.1,1.8c-1.1,1-2.1,2.3-2.8,3.6c-0.9,1.7-1.3,3.5-1.3,5.4c0,2.3,0.6,4.3,1.8,6
		c0.9-1,1.7-2.1,2.5-3.3c0.2-0.3,0.5-0.8,1-1.5c-0.5,0-1.1,0-1.9,0h-0.5c-0.2,0-0.3,0-0.3-0.1c0-0.3,0.3-0.5,0.8-0.8
		c0.3-0.1,1-0.2,2.5-0.2c1.5-2.8,3-5.5,4.2-8.2c0.1-0.2,0.3-0.4,0.5-0.5h0.1c0.1,0,0.1,0,0.1,0.1c0,0,0,0.1-0.1,0.3
		c-0.9,2.2-2.3,5-4.2,8.2l4.9-0.1c0.2,0,0.4,0,0.4,0.1c0,0.2-0.8,0.4-2.2,0.6c-1.3,0.2-2.6,0.4-3.7,0.4c-0.2,0.3-0.6,0.9-1,1.7
		c-0.8,1.1-1.6,2.3-2.8,3.5c1.5,1.9,3,3,4.7,3c0.3,0,0.6,0,0.8-0.1h0.1c0.1,0,0.1,0.1,0.1,0.2s-0.1,0.2-0.2,0.2
		c-0.4,0.1-0.9,0.1-1.5,0.2h-0.1c-1.8,0-3.3-0.9-4.5-2.5l-0.1,0.1c-2.6,2.6-5.3,3.8-8.3,3.8c-1.7,0-3.1-0.5-4.4-1.5
		c-0.9-0.7-1.2-1.7-1.2-3c0-0.7,0.1-1.3,0.3-2c0.6-1.7,1-2.5,1.2-2.5c0.1,0,0.1,0,0.1,0.1l-0.6,1.1c-0.4,0.8-0.6,1.3-0.6,1.8
		c0,0.8,0.3,1.6,0.9,2.3c1.2,1.6,3,2.5,5.5,2.5s4.8-1,6.9-3c-1-1.6-1.6-3.7-1.6-6.1s0.6-4.7,1.8-6.9c1.2-2.2,2.9-3.8,4.9-4.9
		c1-0.5,2-0.8,3-0.8c1.1,0,2.1,0.3,3,0.9c0.7,0.6,2,1.5,3.8,2.9c0.7,0.5,1.2,0.7,1.9,0.7c0.9,0,1.6-0.5,2.4-1.4
		c0-0.1,0.1-0.1,0.2-0.1C167,420.2,167,420.3,167,420.4z"/>
	<path fill="#D8D8D8" d="M169.1,428.7c0,0.1-0.5,0.5-1.3,1c-0.5,0.3-1,0.5-1.8,0.5c-0.1,0-0.8,0-2,0.1c-0.8,0-1.2,0.1-1.4,0.1
		c-0.6,0.1-1,0.3-1.2,0.7c-0.6,0.9-0.9,1.5-0.9,2l0,0c0,0.1,0.1,0.4,0.3,0.6c0.4,0.4,0.9,0.9,1.4,1.5c0.3,0.5,0.5,1,0.5,1.7v0.1
		c0,1-0.6,2.3-1.6,3.8c-1.6,2.2-3.4,3.3-5.4,3.3c-1.5,0-2.3-0.6-2.3-1.8c0-0.4,0-0.5,0.1-0.5l0,0c0,0,0.1,0.1,0.1,0.2
		c0.2,0.7,1,1,2.5,1h0.1c1.9,0,3.4-0.8,4.7-2.3c0.8-1,1.1-1.8,1.1-2.6l0,0c0-0.9-0.8-1.9-2.2-3c-0.3-0.2-0.4-0.6-0.4-1l0,0
		c0-0.3,0.1-0.7,0.3-1c1.5-2.5,2.5-3.7,2.9-3.9c0.1,0,0.2-0.1,0.3-0.1h0.2c0.3,0,0.8,0,1.3,0.1c0.6,0.1,1,0.1,1.3,0.1
		c1,0,1.8-0.1,2.3-0.2c0.1,0,0.3-0.1,0.6-0.3c0.3-0.2,0.5-0.2,0.5-0.2C169.1,428.6,169.1,428.6,169.1,428.7L169.1,428.7z"/>
	<path fill="#D8D8D8" d="M182.6,432c0,0.2-0.2,0.3-0.5,0.3h-1.7h-1.5c-1.3,0-2.1,0-2.3,0c-0.2,0-0.4-0.1-0.4-0.2
		c0-0.2,0.2-0.4,0.5-0.4l0,0c-0.1,0,0.2,0,1,0h0.8c0.5,0,1,0,1.9,0s1.5,0,1.9,0C182.5,431.8,182.6,431.9,182.6,432z"/>
	<path fill="#D8D8D8" d="M220.1,420.3c0,0.8-0.2,1.6-0.6,2.7c-0.1,0.2-0.2,0.3-0.2,0.3c-0.1,0-0.1-0.1-0.1-0.2s0.1-0.4,0.3-0.8
		c0.2-0.5,0.3-0.8,0.3-1c0-0.8-0.7-1.2-2-1.2c-0.9,0-2.2,0.1-4.2,0.4c1,1.1,1.3,2.4,1.3,3.7c0,2.2-1.3,5-3.9,8.6
		c-1,1.4-2.2,2.7-3.3,3.7c-1.6,1.4-3,2.2-4.3,2.2c-1.5,0-2.2-1.2-2.2-3.8c0-0.3,0-1-0.1-1.9c0-1-0.1-1.7-0.1-2.4
		c0-1.2,0-3.3-0.1-6.5c-0.1-1.1-0.4-1.7-1-1.7c-0.4,0-1,0.4-1.6,1c-2.4,2.6-4.8,5.7-6.9,9.5c-1.4,2.5-2.7,4.8-3.5,6.9
		c-0.5,1.2-0.8,2.3-0.8,3.2v0.3c0,0.1,0,0.2-0.1,0.2c-0.2,0-0.4-0.6-0.6-1.7c0-0.1,0-0.2,0-0.3c0-0.4,0.1-0.8,0.3-1.2
		c1.2-2.9,3.3-6.6,6.5-10.9c2.7-3.8,4.9-6.5,6.5-8.2c0.7-0.7,1.1-1,1.6-1c0.7,0,1,0.9,1,2.5c0,0.7,0,1.7,0,3s0,2.4,0,3
		c0,1.5,0,2.7,0.1,3.5c0.1,1.5,0.2,2.6,0.4,3.2c0.4,1.4,1,2.1,2,2.1c0.6,0,1.1-0.2,1.7-0.7c1.4-1,2.8-2.7,4.1-4.7
		c2.2-3.5,3.3-6.6,3.3-9.2c0-1.1-0.3-2-0.8-2.7c-1.1,0.1-2.1,0.2-2.8,0.2c-1.2,0-2.2-0.2-3-0.7c-0.4-0.2-0.6-0.5-0.6-0.9
		c0-0.7,0.8-1,2.2-1c1.5,0,2.8,0.5,3.8,1.5l2.6-0.6c1-0.2,1.9-0.3,2.7-0.3C219.5,418.8,220.1,419.2,220.1,420.3z M212.5,419.7
		c-0.8-0.7-1.8-1-3-1c-1.2,0-1.9,0.2-1.8,0.7c0,0.5,0.6,0.7,1.7,0.7C210.1,420.1,211.2,420,212.5,419.7z"/>
	<path fill="#D8D8D8" d="M220.7,430.3c0.7,0.2,1.5,0.3,2.7,0.3c0.9,0,1.6-0.1,2.3-0.3c0,0,0,0,0.1,0c0,0,0.1,0,0.1,0.1
		s0,0.1-0.1,0.1c-1.3,0.4-2.3,0.5-3,0.5H222c-0.9,0-1.6-0.1-2.3-0.3c-0.2,1.8-1.1,3.5-2.8,5.1c-1,0.9-1.8,1.3-2.7,1.3
		c-0.8,0-1.2-0.4-1.2-1.1v-0.1c0-1.7,1.3-3.6,4-5.7c0.4-0.3,0.7-0.5,1-0.7c0,0,0-0.1,0.1-0.2c0.5-0.4,0.8-0.5,0.8-0.5
		c0.1,0,0.2,0.1,0.3,0.2c0.1,0.4,0.4,0.8,0.9,1c0,0,0.1,0,0.1-0.1c0.3-0.2,0.6-0.4,0.8-0.7c0.2-0.3,0.2-0.5-0.1-0.7
		c-0.3-0.1-0.3-0.3-0.1-0.5c0.2-0.2,0.4-0.3,0.7-0.3s0.5,0.1,0.7,0.3c0.1,0.3,0.1,0.6-0.1,0.9C221.9,429.6,221.4,430,220.7,430.3z
		 M218.5,431.2v-0.3c0-0.5-0.1-0.8-0.4-0.8c-0.1,0-0.3,0.1-0.5,0.3c-2,1.5-3,3.3-3,5.4c0,0.6,0.2,1,0.6,1c0.2,0,0.5-0.1,0.8-0.4
		C217.7,435.2,218.5,433.5,218.5,431.2z"/>
	<path fill="#D8D8D8" d="M231.3,432c0,0,0,0.1-0.1,0.2c-2.1,2.5-4.3,4.3-6.5,5.3c-1,0.5-1.7,0.7-2.2,0.7c-0.7,0-1-0.3-1-1
		c0-0.5,0.3-1.2,0.8-2.2c0.4-0.7,1.5-2.6,3.3-5.6c0.3-0.5,0.5-0.7,0.7-0.7s0.4,0.3,0.5,0.8v0.1c0,0.1,0,0.3-0.1,0.4
		c-0.6,0.7-1,1.3-1.4,2c-1,1.6-1.6,2.9-1.9,3.9c-0.1,0.2-0.1,0.4-0.1,0.6c0,0.6,0.3,0.9,0.8,0.9c0.1,0,0.3,0,0.5-0.1
		C226.7,436.6,229,434.8,231.3,432l0.1-0.2C231.3,431.9,231.3,431.9,231.3,432z M229.3,425.5c0,0.3-0.1,0.6-0.4,0.9
		c-0.3,0.3-0.6,0.5-0.9,0.5c-0.3,0-0.5-0.2-0.5-0.5c0-0.3,0.1-0.7,0.4-1c0.3-0.3,0.6-0.5,0.9-0.5C229.2,425,229.3,425.2,229.3,425.5
		z"/>
	<path fill="#D8D8D8" d="M246.9,430.2c0,0.1-0.1,0.1-0.2,0.1c-2.4,0.2-4.7,0.3-6.9,0.4c-0.6,1.1-1,2.3-1.4,3.3
		c-0.2,0.7-0.4,1.1-0.4,1.5c0,0.6,0.3,0.9,1,0.9c0.7,0,1.6-0.2,2.7-0.7c1-0.5,1.5-0.7,1.3-0.7c0.1,0,0.2,0.1,0.2,0.1
		c0,0.1,0,0.1-0.1,0.2c-0.7,0.4-1.4,0.8-2.4,1c-1,0.4-1.9,0.6-2.6,0.6c-1,0-1.5-0.4-1.5-1.2c0-0.9,0.8-2.6,2.3-5h-2.1
		c-0.1,0-0.2,0-0.2-0.1c0-0.2,0.1-0.3,0.3-0.3c0.8,0,1.5,0,2.3,0c0.4-0.7,1.1-1.7,2.3-3.1c1.3-1.8,2.1-2.7,2.3-2.7
		c0.1,0,0.2,0,0.2,0.1c0,0-0.1,0.1-0.2,0.2c-1,1.4-2.3,3.2-3.7,5.5l6.7-0.2C246.8,430.2,246.9,430.2,246.9,430.2z"/>
	<path fill="#D8D8D8" d="M255.5,428.8c0,0.1,0,0.3-0.1,0.5l-0.5,1c0,0.1-0.1,0.1-0.1,0.1c-0.1,0-0.1,0-0.1-0.1l0,0
		c0-0.1,0-0.2,0-0.3c0-0.5-0.3-0.9-0.8-1c-0.3,0-0.5-0.1-0.7-0.1c-2.2,0-4.2,1.6-6.2,4.9c-0.1,0.2-0.8,1.2-1.8,3.1
		c-0.1,0.2-0.2,0.3-0.3,0.3c-0.2,0-0.4-0.3-0.6-0.8c0,0,0-0.1,0-0.2c0-0.2,0-0.3,0.1-0.5c0.8-1.4,1.7-3.1,2.9-5.3
		c0.3-0.6,0.6-0.9,1-0.9c0.2,0,0.3,0.1,0.3,0.2s-0.4,1-1.1,2.5c1.4-1.7,3-3,4.7-4.1c0.8-0.5,1.4-0.7,2-0.7
		C255,427.8,255.5,428.1,255.5,428.8z"/>
	<path fill="#D8D8D8" d="M263.8,434.8c0,0.1,0,0.1-0.1,0.2c-1.3,1.7-2.8,3-4.2,3.8c-0.6,0.3-1,0.5-1.5,0.5c-0.6,0-1-0.2-1.3-0.5
		c-0.3-0.3-0.6-0.8-0.6-1.3c0-0.8,0.4-1.9,1.2-3.5c-1.8,2.2-3,3.3-3.9,3.3c-0.5,0-0.8-0.3-0.8-0.8c0-0.2,0-0.4,0.1-0.6
		c1-2.9,2.7-5,5-6.3c0.4-0.2,0.8-0.4,1.1-0.4s0.8,0.1,1.1,0.4c0.3-0.4,0.6-0.6,0.8-0.6c0.1,0,0.1,0,0.1,0.1c0,0,0,0.1-0.1,0.3
		c-0.8,1.1-1.4,2.4-2,3.8c-0.8,1.7-1.1,3-1.1,4.1c0,1,0.4,1.4,1.1,1.4c0.3,0,0.6-0.1,0.8-0.2c1.4-0.7,2.8-1.9,4-3.8
		C263.6,434.8,263.7,434.7,263.8,434.8C263.7,434.7,263.8,434.7,263.8,434.8z M259,430.4c-0.3-0.3-0.6-0.5-0.9-0.5
		c-0.4,0-0.8,0.2-1.1,0.7c-1.2,1.4-2.1,3-2.7,4.9c-0.1,0.2-0.1,0.4-0.1,0.7c0,0.2,0.1,0.3,0.2,0.3s0.2,0,0.4-0.1
		c0.8-0.6,1.6-1.5,2.7-3C258,432.4,258.6,431.4,259,430.4z M259.7,427.5c0,0-0.1-0.1-0.2-0.3v-0.1V427c0.2-0.3,0.7-0.8,1.4-1.2
		c1-0.6,1.4-1,1.5-1c0.4-0.4,0.7-0.8,0.7-1.1c0-0.6-0.4-0.9-1-0.9c-0.3,0-0.7,0.1-1,0.3s-0.7,0.4-1,0.7c0,0-0.1,0.1-0.2,0.1h-0.2
		c0.2-0.5,0.2-0.7,0.2-0.7c0,0.1,0,0,0.2-0.1c0.5-0.4,1.1-0.6,1.8-0.6c1.1,0,1.7,0.4,1.7,1.2c0,0.7-0.6,1.4-1.6,2.2
		c-0.2,0.2-0.7,0.5-1.2,1c-0.4,0.3-0.6,0.7-0.6,1.1v0.3l-0.4-0.2C259.7,427.6,259.7,427.5,259.7,427.5z"/>
	<path fill="#D8D8D8" d="M272.4,432c0,0,0,0.1-0.1,0.2c-2.1,2.5-4.3,4.3-6.5,5.3c-1,0.5-1.7,0.7-2.2,0.7c-0.7,0-1-0.3-1-1
		c0-0.5,0.3-1.2,0.8-2.2c0.4-0.7,1.5-2.6,3.3-5.6c0.3-0.5,0.5-0.7,0.7-0.7s0.4,0.3,0.5,0.8v0.1c0,0.1,0,0.3-0.1,0.4
		c-0.6,0.7-1,1.3-1.4,2c-1,1.6-1.6,2.9-1.9,3.9c-0.1,0.2-0.1,0.4-0.1,0.6c0,0.6,0.3,0.9,0.8,0.9c0.1,0,0.3,0,0.5-0.1
		C267.8,436.6,270.1,434.8,272.4,432l0.1-0.2C272.3,431.9,272.4,431.9,272.4,432z M270.3,425.5c0,0.3-0.1,0.6-0.4,0.9
		c-0.3,0.3-0.6,0.5-0.9,0.5s-0.5-0.2-0.5-0.5c0-0.3,0.1-0.7,0.4-1c0.3-0.3,0.6-0.5,0.9-0.5C270.2,425,270.3,425.2,270.3,425.5z"/>
	<path fill="#D8D8D8" d="M288.1,436.1c0,0.3-0.5,0.8-1.4,1.2c-0.8,0.5-1.4,0.8-1.8,0.9c-0.6,0.2-1.1,0.3-1.7,0.3c-1.3,0-2-0.6-2-1.7
		c0-0.8,0.8-2.8,2.4-6c0-0.1,0.1-0.2,0.1-0.2c0-0.1-0.1-0.2-0.2-0.2c-0.1,0-0.1,0-0.2,0.1c-1.6,1-3.4,3.1-5.5,6.2
		c-0.4,0.5-0.8,0.8-1.2,0.8h-0.1c-0.1,0-0.1-0.1-0.1-0.2s0-0.2,0.1-0.3c0.9-1.5,2-3.8,3.4-6.9c0.2-0.5,0.7-0.9,1.4-1h0.1
		c0.1,0,0.1,0.1,0.1,0.1c0,0.1,0,0.3-0.1,0.4c-0.7,1.2-1.3,2.7-2.1,4.4c1.1-1.4,2.5-2.8,4.1-4c0.6-0.5,1-0.8,1.3-0.8h0.1
		c0.4,0,0.6,0.2,0.6,0.6c0,0.1,0,0.2-0.1,0.3c-0.8,1.3-1.3,2.3-1.5,2.7c-0.7,1.4-1,2.7-1,3.6c0,1,0.5,1.6,1.5,1.6
		c1.3,0,2.6-0.7,3.7-2l0.1-0.1C288.1,436,288.1,436,288.1,436.1z"/>
	<path fill="#D8D8D8" d="M296.2,433.1c0,0.1,0,0.1-0.1,0.2c-0.7,1-2,2.1-3.8,3c-1.1,0.6-2.4,1-3.7,1.5c-2.6,4.6-4.8,7.6-6.7,9.2
		c-2.3,1.9-4.4,2.9-6.5,2.9c-1.1,0-2.2-0.3-3.1-0.9c-1-0.7-1.6-1.5-1.6-2.6c0-2.7,3.2-4.9,9.7-6.7c2.1-0.6,4.7-1.3,7.7-2.2
		c0.1-0.2,0.3-0.5,0.5-1c0.7-1.3,1.2-2.5,1.7-3.5c-1.7,2.2-3.2,3.2-4.5,3.2c-0.6,0-1-0.3-1-1c0-0.2,0.1-0.5,0.2-0.8c0.5-1,1.1-2,2-3
		c1-1,1.8-1.8,2.9-2.2c0.6-0.3,1.1-0.4,1.6-0.4c0.3,0,0.6,0,0.7,0.1c0.1-0.2,0.3-0.5,0.6-1c0.4-0.6,0.7-1,0.9-1
		c0.2,0,0.3,0.1,0.3,0.3v0.2c0,0.4-0.2,1-0.7,1.8c-0.8,1.3-2.2,3.8-4.3,7.2l-0.3,0.4c1-0.4,2.2-0.8,3.3-1.4c1.8-0.9,3-1.8,3.7-2.9
		c0.1-0.1,0.1-0.1,0.2-0.1C296.1,433,296.2,433,296.2,433.1z M287.8,438.1l-8.3,2.8c-3.7,1.4-6.1,2.8-7.1,4.2c-0.7,0.8-1,1.5-1,2.1
		c0,0.8,0.4,1.3,1.1,1.7c0.6,0.3,1.3,0.4,2.2,0.4c2.6,0,5.1-1.3,7.8-3.9C284.4,443.4,286.2,440.9,287.8,438.1z M292,429.8
		c-0.2-0.1-0.5-0.1-0.9-0.1c-0.6,0-1,0.1-1.3,0.4c-0.7,0.5-1.4,1.3-2.2,2.6c-0.9,1.3-1.3,2.3-1.3,3c0,0.2,0.1,0.3,0.3,0.3h0.1
		c0.3,0,0.7-0.2,1.2-0.7C289.1,434.2,290.4,432.5,292,429.8z"/>
	<path fill="#D8D8D8" d="M299.3,434.1c0.5-1,0.9-2.1,1.1-3.1c0-0.1,0.1-0.3,0.1-0.4c0-0.2-0.1-0.3-0.2-0.3c-0.1,0-0.3,0.1-0.5,0.2
		c-1.1,0.8-2,1.5-2.6,2.3c-0.5,0.7-1.1,1.7-2,3.3c-0.2,0.3-0.4,0.5-0.6,0.7c-0.2,0.1-0.4,0.3-0.6,0.4c-0.2,0.2-0.4,0.2-0.5,0.2
		s-0.1,0-0.1-0.1s0-0.1,0-0.2c2.2-4.3,5-8.8,8.2-13.4c1.4-2,3-3.9,4.8-5.8c2.1-2.2,4-3.8,5.7-4.8c0.9-0.5,1.7-0.8,2.5-0.8
		c1.3,0,2.1,0.4,2.5,1.2c0.1,0.5,0.2,0.9,0.3,1.3l0,0c0,0.1,0,0.1-0.1,0.1c-0.1,0-0.1-0.1-0.1-0.1c-0.4-1-1.3-1.4-2.9-1.4
		c-2.3,0-4.7,1.4-7.2,4.2c-1.2,1.3-3,3.6-5,6.9c-1.9,3-3.2,5.2-4.2,6.9c2.1-1.7,3.3-2.6,3.7-2.6c0.3,0,0.4,0.2,0.4,0.7
		c0,0.3-0.1,0.8-0.3,1.2c-0.3,0.7-0.6,1.4-0.9,2.2c-0.5,1.1-0.8,2.2-0.8,3c0,1,0.5,1.6,1.5,1.6c1.3,0,2.6-0.7,3.6-2
		c0.1,0,0.1-0.1,0.1-0.1c0.1,0,0.1,0,0.1,0.1c0,0.3-0.5,0.8-1.4,1.2c-0.8,0.5-1.4,0.8-1.8,0.9c-0.6,0.2-1.1,0.3-1.7,0.3
		c-1.3,0-2-0.6-2-1.7C298.4,436.4,298.7,435.4,299.3,434.1z"/>
	<path fill="#D8D8D8" d="M313.5,432c0,0,0,0.1-0.1,0.2c-2.1,2.5-4.3,4.3-6.5,5.3c-1,0.5-1.7,0.7-2.2,0.7c-0.7,0-1-0.3-1-1
		c0-0.5,0.3-1.2,0.8-2.2c0.4-0.7,1.5-2.6,3.3-5.6c0.3-0.5,0.5-0.7,0.7-0.7c0.2,0,0.4,0.3,0.5,0.8v0.1c0,0.1,0,0.3-0.1,0.4
		c-0.6,0.7-1,1.3-1.4,2c-1,1.6-1.6,2.9-1.9,3.9c-0.1,0.2-0.1,0.4-0.1,0.6c0,0.6,0.3,0.9,0.8,0.9c0.1,0,0.3,0,0.5-0.1
		C309,436.6,311.3,434.8,313.5,432l0.1-0.2C313.5,431.9,313.5,431.9,313.5,432z M311.5,425.5c0,0.3-0.1,0.6-0.4,0.9
		c-0.3,0.3-0.6,0.5-0.9,0.5c-0.3,0-0.5-0.2-0.5-0.5c0-0.3,0.1-0.7,0.4-1c0.3-0.3,0.6-0.5,0.9-0.5C311.3,425,311.5,425.2,311.5,425.5
		z"/>
	<path fill="#D8D8D8" d="M320.9,433.4c0,0,0,0.1-0.1,0.2c-1.9,1.8-4,3-6.3,3.6c-0.6,0.2-1.2,0.3-1.8,0.3h-0.1
		c-1.2,0-1.9-0.5-1.9-1.5c0-0.6,0.2-1.3,0.7-2.2c1-1.9,2.6-3.3,4.4-4.2c0.8-0.3,1.3-0.5,1.8-0.5l0,0c0.6,0,0.8,0.2,0.8,0.7
		c0,1.4-2,2.8-5.9,4.2c-0.3,0.7-0.5,1.2-0.5,1.6v0.1c0,0.9,0.6,1.2,1.6,1.2h0.1c0.4,0,0.8,0,1.1-0.1c2.1-0.6,4-1.7,5.7-3.4l0.1-0.1
		C320.9,433.3,320.9,433.3,320.9,433.4z M311.9,439.4c-0.5,0.1-0.8,0.4-1,1c0,0.1,0,0.2,0,0.4c0,0.1,0.1,0.3,0.3,0.4
		c0.2,0.2,0.5,0.2,0.8,0c0.3-0.2,0.5-0.5,0.5-0.8c0.1-0.3,0-0.5,0-0.8C312.5,439.3,312.2,439.3,311.9,439.4z M317.2,430.6v-0.2
		c0-0.5-0.2-0.7-0.6-0.7c-0.2,0-0.5,0.1-0.8,0.3c-1.2,0.9-2.3,2.1-3,3.6C315.5,432.8,317,431.7,317.2,430.6z M319.6,428.3l-0.5,0.3
		c-0.1,0-0.1-0.1-0.1-0.2l-0.1-1.8c0-0.1,0-0.1-0.1-0.1c0,0-0.1,0-0.2,0.1c-0.6,0.4-1,0.7-1.2,0.8c-1,0.7-1.4,1-1.5,1
		c-0.1,0-0.1,0-0.1-0.1c0-0.1,0.1-0.2,0.2-0.3c0.5-0.4,0.9-0.7,1-0.8c1.1-0.8,1.8-1.1,2.1-1.3c0,0,0.1,0,0.3,0c0.1,0,0.1,0,0.1,0.1
		c0,0.2,0,0.6,0.1,1s0.1,0.8,0.1,1C319.7,428.1,319.7,428.2,319.6,428.3z"/>
	<path fill="#D8D8D8" d="M335,432.2c0,0,0,0.1-0.1,0.2c-1.2,2.1-3,3.7-5.5,5c-0.9,0.5-1.6,0.7-2.3,0.7c-0.7,0-1-0.3-1-1
		c0-0.4,0.1-0.8,0.4-1.2c0.8-1.3,1.4-2.6,2-3.7c0.2-0.3,0.2-0.6,0.2-0.8s-0.1-0.4-0.3-0.4c-0.2,0-0.4,0.1-0.6,0.2
		c-0.9,0.6-1.7,1.5-2.7,2.8c-1,1.3-1.5,2-1.9,2h-0.1c-0.3,0-0.4-0.2-0.4-0.4c0-0.1,0.1-0.3,0.2-0.4c1-1.3,1.8-2.7,2.4-4
		c0-0.1,0.1-0.2,0.1-0.4c0-0.1-0.1-0.2-0.2-0.2c-0.1,0-0.2,0-0.4,0.1c-1.3,0.9-2.6,2-3.6,3.6c-0.2,0.5-0.6,1.1-1.1,2
		c-0.1,0.1-0.2,0.2-0.3,0.2c-0.2,0-0.4-0.2-0.4-0.7c0-0.1,0-0.2,0.1-0.4c0.2-0.6,0.7-1.6,1.5-3.1c1.3-2.6,2.2-3.8,2.6-3.8
		c0.1,0,0.3,0.2,0.5,0.5v0.1c0,0.1,0,0.2-0.1,0.3c-0.2,0.3-0.9,1.3-1.9,3.2c0,0,0,0,0.1-0.1c1-1.2,2.4-2.2,3.9-3
		c0.2-0.1,0.4-0.2,0.6-0.2c0.2,0,0.3,0.1,0.3,0.4s-0.2,0.7-0.6,1.3c-0.4,0.7-0.6,1-0.6,1s0.1,0,0.1-0.1c1-1,2-1.6,3-2.1
		c0.2-0.1,0.3-0.1,0.4-0.1c0.3,0,0.5,0.1,0.6,0.4v0.1c0,0.2-0.1,0.6-0.3,1c-1,1.8-1.6,3.1-2.1,4.2c-0.1,0.3-0.2,0.6-0.2,0.8
		c0,0.5,0.2,0.7,0.7,0.7c0.3,0,0.6-0.1,0.9-0.2c2.4-1.1,4.2-2.8,5.4-5c0.1-0.1,0.1-0.1,0.2-0.1S335,432.1,335,432.2z"/>
	<path fill="#D8D8D8" d="M350.6,436.1c0,0.3-0.5,0.8-1.4,1.2c-0.8,0.5-1.4,0.8-1.8,0.9c-0.6,0.2-1.1,0.3-1.7,0.3c-1.3,0-2-0.6-2-1.7
		c0-0.8,0.8-2.8,2.4-6c0-0.1,0.1-0.2,0.1-0.2c0-0.1-0.1-0.2-0.2-0.2s-0.1,0-0.2,0.1c-1.6,1-3.4,3.1-5.5,6.2
		c-0.4,0.5-0.8,0.8-1.2,0.8h-0.1c-0.1,0-0.1-0.1-0.1-0.2s0-0.2,0.1-0.3c0.9-1.5,2-3.8,3.4-6.9c0.2-0.5,0.7-0.9,1.4-1h0.1
		c0.1,0,0.1,0.1,0.1,0.1c0,0.1,0,0.3-0.1,0.4c-0.7,1.2-1.3,2.7-2.1,4.4c1.1-1.4,2.5-2.8,4.1-4c0.6-0.5,1-0.8,1.3-0.8h0.1
		c0.4,0,0.6,0.2,0.6,0.6c0,0.1,0,0.2-0.1,0.3c-0.8,1.3-1.3,2.3-1.5,2.7c-0.7,1.4-1,2.7-1,3.6c0,1,0.5,1.6,1.5,1.6
		c1.3,0,2.6-0.7,3.7-2l0.1-0.1C350.6,436,350.6,436,350.6,436.1z"/>
	<path fill="#D8D8D8" d="M358.7,433.1c0,0.1,0,0.1-0.1,0.2c-0.7,1-2,2.1-3.8,3c-1.1,0.6-2.4,1-3.7,1.5c-2.6,4.6-4.8,7.6-6.7,9.2
		c-2.3,1.9-4.4,2.9-6.5,2.9c-1.1,0-2.2-0.3-3.1-0.9c-1-0.7-1.6-1.5-1.6-2.6c0-2.7,3.2-4.9,9.7-6.7c2.1-0.6,4.7-1.3,7.7-2.2
		c0.1-0.2,0.3-0.5,0.5-1c0.7-1.3,1.2-2.5,1.7-3.5c-1.7,2.2-3.2,3.2-4.5,3.2c-0.6,0-1-0.3-1-1c0-0.2,0.1-0.5,0.2-0.8c0.5-1,1-2,2-3
		c1-1,1.8-1.8,2.9-2.2c0.6-0.3,1.1-0.4,1.6-0.4c0.3,0,0.6,0,0.7,0.1c0.1-0.2,0.3-0.5,0.6-1c0.4-0.6,0.7-1,0.9-1s0.3,0.1,0.3,0.3v0.2
		c0,0.4-0.2,1-0.7,1.8c-0.8,1.3-2.2,3.8-4.3,7.2l-0.3,0.4c1-0.4,2.2-0.8,3.3-1.4c1.8-0.9,3-1.8,3.7-2.9c0.1-0.1,0.1-0.1,0.2-0.1
		C358.7,433,358.7,433,358.7,433.1z M350.3,438.1l-8.4,2.8c-3.7,1.4-6.1,2.8-7.1,4.2c-0.7,0.8-1,1.5-1,2.1c0,0.8,0.4,1.3,1.1,1.7
		c0.6,0.3,1.3,0.4,2.2,0.4c2.6,0,5.1-1.3,7.8-3.9C347,443.4,348.7,440.9,350.3,438.1z M354.5,429.8c-0.2-0.1-0.5-0.1-0.9-0.1
		c-0.6,0-1,0.1-1.3,0.4c-0.7,0.5-1.4,1.3-2.2,2.6c-0.9,1.3-1.3,2.3-1.3,3c0,0.2,0.1,0.3,0.3,0.3h0.1c0.3,0,0.7-0.2,1.2-0.7
		C351.5,434.2,353,432.5,354.5,429.8z"/>
	<path fill="#D8D8D8" d="M361.7,434.1c0.5-1,0.9-2.1,1.1-3.1c0-0.1,0.1-0.3,0.1-0.4c0-0.2-0.1-0.3-0.2-0.3s-0.3,0.1-0.5,0.2
		c-1.1,0.8-2,1.5-2.6,2.3c-0.5,0.7-1.1,1.7-2,3.3c-0.2,0.3-0.4,0.5-0.6,0.7c-0.2,0.1-0.4,0.3-0.5,0.4c-0.2,0.2-0.4,0.2-0.5,0.2
		s-0.1,0-0.1-0.1s0-0.1,0-0.2c2.2-4.3,5-8.8,8.2-13.4c1.4-2,3-3.9,4.8-5.8c2.1-2.2,4-3.8,5.7-4.8c0.9-0.5,1.7-0.8,2.5-0.8
		c1.3,0,2.1,0.4,2.5,1.2c0.1,0.5,0.2,0.9,0.3,1.3l0,0c0,0.1,0,0.1-0.1,0.1s-0.1-0.1-0.1-0.1c-0.4-1-1.3-1.4-2.9-1.4
		c-2.3,0-4.7,1.4-7.2,4.2c-1.2,1.3-3,3.6-5,6.9c-1.9,3-3.2,5.2-4.2,6.9c2.1-1.7,3.3-2.6,3.7-2.6c0.3,0,0.4,0.2,0.4,0.7
		c0,0.3-0.1,0.8-0.3,1.2c-0.3,0.7-0.6,1.4-0.9,2.2c-0.5,1.1-0.8,2.2-0.8,3c0,1,0.5,1.6,1.5,1.6c1.3,0,2.6-0.7,3.6-2
		c0.1,0,0.1-0.1,0.1-0.1c0.1,0,0.1,0,0.1,0.1c0,0.3-0.5,0.8-1.4,1.2c-0.8,0.5-1.4,0.8-1.8,0.9c-0.6,0.2-1.2,0.3-1.7,0.3
		c-1.3,0-2-0.6-2-1.7C360.9,436.4,361.1,435.4,361.7,434.1z"/>
	<path fill="#D8D8D8" d="M376.6,433.4c0,0,0,0.1-0.1,0.2c-1.9,1.8-4,3-6.3,3.6c-0.6,0.2-1.2,0.3-1.8,0.3h-0.1
		c-1.2,0-1.9-0.5-1.9-1.5c0-0.6,0.2-1.3,0.7-2.2c1-1.9,2.6-3.3,4.4-4.2c0.8-0.3,1.3-0.5,1.8-0.5l0,0c0.6,0,0.8,0.2,0.8,0.7
		c0,1.4-2,2.8-5.9,4.2c-0.3,0.7-0.5,1.2-0.5,1.6v0.1c0,0.9,0.6,1.2,1.6,1.2h0.1c0.4,0,0.8,0,1.1-0.1c2.1-0.6,4-1.7,5.7-3.4l0.1-0.1
		C376.6,433.3,376.6,433.3,376.6,433.4z M367.6,439.4c-0.5,0.1-0.8,0.4-1,1c0,0.1,0,0.2,0,0.4c0,0.1,0.1,0.3,0.3,0.4
		c0.2,0.2,0.5,0.2,0.8,0c0.3-0.2,0.5-0.5,0.5-0.8c0.1-0.3,0-0.5,0-0.8C368.1,439.4,367.9,439.3,367.6,439.4z M372.8,430.6v-0.2
		c0-0.5-0.2-0.7-0.6-0.7c-0.2,0-0.5,0.1-0.8,0.3c-1.2,0.9-2.3,2.1-3,3.6C371.2,432.8,372.7,431.7,372.8,430.6z M375.3,428.3
		l-0.5,0.3c-0.1,0-0.1-0.1-0.1-0.2l-0.1-1.8c0-0.1,0-0.1-0.1-0.1c0,0-0.1,0-0.2,0.1c-0.6,0.4-1,0.7-1.2,0.8c-1,0.7-1.4,1-1.5,1
		c-0.1,0-0.1,0-0.1-0.1c0-0.1,0.1-0.2,0.2-0.3c0.5-0.4,0.9-0.7,1-0.8c1.1-0.8,1.8-1.1,2.1-1.3c0,0,0.1,0,0.3,0c0.1,0,0.1,0,0.1,0.1
		c0,0.2,0,0.6,0.1,1s0.1,0.8,0.1,1C375.4,428.1,375.4,428.2,375.3,428.3z"/>
	<path fill="#D8D8D8" d="M393.2,430.2c0,0.1-0.1,0.1-0.2,0.1c-2.4,0.2-4.7,0.3-6.9,0.4c-0.6,1.1-1,2.3-1.4,3.3
		c-0.2,0.7-0.4,1.1-0.4,1.5c0,0.6,0.3,0.9,1,0.9s1.6-0.2,2.7-0.7c1-0.5,1.5-0.7,1.3-0.7c0.1,0,0.2,0.1,0.2,0.1c0,0.1,0,0.1-0.1,0.2
		c-0.7,0.4-1.4,0.8-2.4,1c-1,0.4-1.9,0.6-2.6,0.6c-1,0-1.5-0.4-1.5-1.2c0-0.9,0.8-2.6,2.3-5h-2.1c-0.1,0-0.2,0-0.2-0.1
		c0-0.2,0.1-0.3,0.3-0.3c0.8,0,1.5,0,2.3,0c0.4-0.7,1.1-1.7,2.3-3.1c1.3-1.8,2.1-2.7,2.3-2.7c0.1,0,0.2,0,0.2,0.1
		c0,0-0.1,0.1-0.2,0.2c-1,1.4-2.3,3.2-3.7,5.5l6.7-0.2C393.1,430.2,393.2,430.2,393.2,430.2z"/>
	<path fill="#D8D8D8" d="M394.3,434.1c0.5-1,0.9-2.1,1.1-3.1c0-0.1,0.1-0.3,0.1-0.4c0-0.2-0.1-0.3-0.2-0.3c-0.1,0-0.3,0.1-0.5,0.2
		c-1.1,0.8-2,1.5-2.6,2.3c-0.5,0.7-1.1,1.7-2,3.3c-0.2,0.3-0.4,0.5-0.6,0.7c-0.2,0.1-0.4,0.3-0.5,0.4c-0.2,0.2-0.4,0.2-0.5,0.2
		s-0.1,0-0.1-0.1s0-0.1,0-0.2c2.2-4.3,5-8.8,8.2-13.4c1.4-2,3-3.9,4.8-5.8c2.1-2.2,4-3.8,5.7-4.8c0.9-0.5,1.7-0.8,2.5-0.8
		c1.3,0,2.1,0.4,2.5,1.2c0.1,0.5,0.2,0.9,0.3,1.3l0,0c0,0.1,0,0.1-0.1,0.1c-0.1,0-0.1-0.1-0.1-0.1c-0.4-1-1.3-1.4-2.9-1.4
		c-2.3,0-4.7,1.4-7.2,4.2c-1.2,1.3-3,3.6-5,6.9c-1.9,3-3.2,5.2-4.2,6.9c2.1-1.7,3.3-2.6,3.7-2.6c0.3,0,0.4,0.2,0.4,0.7
		c0,0.3-0.1,0.8-0.3,1.2c-0.3,0.7-0.6,1.4-0.9,2.2c-0.5,1.1-0.8,2.2-0.8,3c0,1,0.5,1.6,1.5,1.6c1.3,0,2.6-0.7,3.6-2
		c0.1,0,0.1-0.1,0.1-0.1c0.1,0,0.1,0,0.1,0.1c0,0.3-0.5,0.8-1.4,1.2c-0.8,0.5-1.4,0.8-1.8,0.9c-0.6,0.2-1.2,0.3-1.7,0.3
		c-1.3,0-2-0.6-2-1.7C393.5,436.4,393.7,435.4,394.3,434.1z"/>
	<path fill="#D8D8D8" d="M411.1,433.3C411.1,433.3,411.1,433.4,411.1,433.3c-2.2,2.6-4,3.9-5.7,3.9c-1.1,0-1.7-0.6-1.7-1.7
		c0-0.4,0.1-0.7,0.2-1c-0.7,0.8-1.1,1.2-1.5,1.6c-0.8,0.7-1.3,1-1.8,1c-0.4,0-0.6-0.2-0.6-0.7c0-0.3,0.1-0.6,0.3-1
		c0.7-1.6,1.5-3.2,2.6-5c0.1-0.1,0.3-0.4,0.6-0.9c0.2-0.3,0.6-0.5,1.2-0.6c0.2,0.1,0.3,0.1,0.3,0.2c0,0.2-0.1,0.5-0.4,0.8
		c-0.4,0.4-0.7,0.7-0.7,0.8c-0.9,1.4-1.5,2.8-2,4c-0.2,0.5-0.3,0.8-0.3,1c0,0.2,0.1,0.4,0.2,0.4c0.4,0,1-0.6,1.9-1.8
		c0.7-1,1.7-2.7,3.1-4.8c0.1-0.2,0.3-0.3,0.5-0.3c0.3,0,0.4,0.2,0.4,0.7c0,0.2-0.1,0.4-0.2,0.7c-1.6,2.4-2.5,4.1-2.5,5.2
		c0,0.7,0.4,1,1,1c0.2,0,0.5-0.1,1-0.2C408.4,436.3,409.7,435.1,411.1,433.3C411.1,433.2,411.2,433.2,411.1,433.3
		C411.2,433.2,411.1,433.2,411.1,433.3z"/>
	<path fill="#D8D8D8" d="M419.7,434.8c0,0.1,0,0.1-0.1,0.2c-1.3,1.7-2.8,3-4.2,3.8c-0.6,0.3-1,0.5-1.5,0.5c-0.6,0-1-0.2-1.3-0.5
		c-0.4-0.4-0.6-0.8-0.6-1.3c0-0.8,0.4-1.9,1.2-3.5c-1.8,2.2-3,3.3-3.9,3.3c-0.5,0-0.8-0.3-0.8-0.8c0-0.2,0-0.4,0.1-0.6
		c1-2.9,2.7-5,5-6.3c0.4-0.2,0.8-0.4,1.1-0.4c0.4,0,0.8,0.1,1.1,0.4c0.3-0.4,0.6-0.6,0.8-0.6c0.1,0,0.1,0,0.1,0.1c0,0,0,0.1-0.1,0.3
		c-0.8,1.1-1.4,2.4-2,3.8c-0.8,1.7-1.1,3-1.1,4.1c0,1,0.4,1.4,1.1,1.4c0.3,0,0.6-0.1,0.8-0.2c1.4-0.7,2.8-1.9,4-3.8
		C419.4,434.8,419.5,434.7,419.7,434.8C419.7,434.7,419.7,434.7,419.7,434.8z M409.9,439.4c-0.5,0.1-0.8,0.4-1,1c0,0.1,0,0.2,0,0.4
		c0,0.1,0.1,0.3,0.3,0.4c0.2,0.2,0.5,0.2,0.8,0c0.3-0.2,0.5-0.5,0.5-0.8c0.1-0.3,0-0.5,0-0.8C410.4,439.4,410.2,439.3,409.9,439.4z
		 M414.9,430.4c-0.3-0.3-0.6-0.5-0.9-0.5c-0.4,0-0.8,0.2-1.1,0.7c-1.2,1.4-2.1,3-2.7,4.9c-0.1,0.2-0.1,0.4-0.1,0.7
		c0,0.2,0.1,0.3,0.2,0.3s0.2,0,0.4-0.1c0.8-0.6,1.6-1.5,2.7-3C413.9,432.4,414.5,431.4,414.9,430.4z M417.6,428.3l-0.5,0.3
		c-0.1,0-0.1-0.1-0.1-0.2l-0.1-1.8c0-0.1,0-0.1-0.1-0.1c0,0-0.1,0-0.2,0.1c-0.6,0.4-1,0.7-1.2,0.8c-1,0.7-1.4,1-1.5,1
		c-0.1,0-0.1,0-0.1-0.1c0-0.1,0.1-0.2,0.2-0.3c0.5-0.4,0.9-0.7,1-0.8c1.1-0.8,1.8-1.1,2.1-1.3c0,0,0.1,0,0.3,0c0.1,0,0.1,0,0.1,0.1
		c0,0.2,0,0.6,0.1,1c0.1,0.5,0.1,0.8,0.1,1C417.8,428.1,417.7,428.2,417.6,428.3z"/>
	<path fill="#D8D8D8" d="M429.8,430.2c0,0.1-0.1,0.1-0.2,0.1c-2.4,0.2-4.7,0.3-6.9,0.4c-0.6,1.1-1,2.3-1.4,3.3
		c-0.2,0.7-0.4,1.1-0.4,1.5c0,0.6,0.3,0.9,1,0.9s1.6-0.2,2.7-0.7c1-0.5,1.5-0.7,1.3-0.7c0.1,0,0.2,0.1,0.2,0.1c0,0.1,0,0.1-0.1,0.2
		c-0.7,0.4-1.4,0.8-2.4,1c-1,0.4-1.9,0.6-2.6,0.6c-1,0-1.5-0.4-1.5-1.2c0-0.9,0.8-2.6,2.3-5h-2.1c-0.1,0-0.2,0-0.2-0.1
		c0-0.2,0.1-0.3,0.3-0.3c0.8,0,1.5,0,2.3,0c0.4-0.7,1.1-1.7,2.3-3.1c1.3-1.8,2.1-2.7,2.3-2.7c0.1,0,0.2,0,0.2,0.1
		c0,0-0.1,0.1-0.2,0.2c-1,1.4-2.3,3.2-3.7,5.5l6.7-0.2C429.7,430.2,429.8,430.2,429.8,430.2z"/>
	<path fill="#D8D8D8" d="M445.3,430.2c0,0.1-0.1,0.1-0.2,0.1c-2.4,0.2-4.7,0.3-6.9,0.4c-0.6,1.1-1,2.3-1.4,3.3
		c-0.2,0.7-0.4,1.1-0.4,1.5c0,0.6,0.3,0.9,1,0.9c0.7,0,1.6-0.2,2.7-0.7c1-0.5,1.5-0.7,1.3-0.7c0.1,0,0.2,0.1,0.2,0.1
		c0,0.1,0,0.1-0.1,0.2c-0.7,0.4-1.4,0.8-2.4,1c-1,0.4-1.9,0.6-2.6,0.6c-1,0-1.5-0.4-1.5-1.2c0-0.9,0.8-2.6,2.3-5h-2.1
		c-0.1,0-0.2,0-0.2-0.1c0-0.2,0.1-0.3,0.3-0.3c0.8,0,1.5,0,2.3,0c0.4-0.7,1.1-1.7,2.3-3.1c1.3-1.8,2.1-2.7,2.3-2.7
		c0.1,0,0.2,0,0.2,0.1c0,0-0.1,0.1-0.2,0.2c-1,1.4-2.3,3.2-3.7,5.5l6.7-0.2C445.2,430.2,445.3,430.2,445.3,430.2z"/>
	<path fill="#D8D8D8" d="M455.2,430.4c0,0.1-0.1,0.1-0.2,0.1c-1.3,0.4-2.3,0.5-2.9,0.5h-0.8c-0.9,0-1.6-0.1-2.3-0.3
		c-0.2,1.8-1.1,3.5-2.8,5.1c-1,0.9-1.8,1.3-2.6,1.3c-0.8,0-1.2-0.4-1.2-1.1v-0.1c0-1.7,1.3-3.6,4-5.7c0.4-0.3,0.7-0.5,1.1-0.7
		c0,0,0-0.1,0.1-0.2c0.5-0.4,0.8-0.5,0.8-0.5c0.1,0,0.2,0.1,0.3,0.2c0.2,1,1.5,1.4,3.9,1.4c0.9,0,1.6-0.1,2.3-0.3
		C455.1,430.3,455.1,430.3,455.2,430.4C455.2,430.3,455.2,430.3,455.2,430.4z M447.9,431.2v-0.3c0-0.5-0.1-0.8-0.4-0.8
		c-0.1,0-0.3,0.1-0.5,0.3c-2,1.5-3,3.3-3,5.4c0,0.6,0.2,1,0.6,1c0.2,0,0.5-0.1,0.8-0.4C447,435.2,447.9,433.5,447.9,431.2z
		 M448.3,427.8L448.3,427.8c0.7-0.5,1.4-1.1,2.6-1.9c0.4-0.3,0.8-0.5,1-0.7c0.1,0,0.1-0.1,0.2,0c0.1,0,0.1,0.1,0.1,0.2
		c0,0.2,0.1,0.4,0,0.5s-0.2,0.2-0.4,0.3c-0.9,0.6-2,1.2-3.4,2h-0.1C448.3,427.9,448.3,427.9,448.3,427.8z"/>
	<path fill="#D8D8D8" d="M459.6,434c0,0.1,0,0.1-0.1,0.2c-2.5,2.3-4.5,3.3-6,3.3c-1.1,0-1.8-0.6-1.8-1.7c0-0.5,0.2-1.1,0.5-1.8
		c0.7-1.5,1.4-2.6,2.4-3.2c0.7-0.5,1.7-1,3.2-1.4c0.1,0,0.2-0.1,0.3-0.1c0.2,0,0.4,0.1,0.6,0.3c0.2,0.2,0.3,0.4,0.3,0.6
		c0,0.1,0,0.2-0.1,0.4c-0.2,0.5-0.4,0.7-0.6,0.7c-0.1,0-0.2-0.1-0.3-0.3c-0.3-0.6-0.6-0.9-1-0.9c-0.3,0-0.6,0.1-1,0.4
		c-1,0.7-1.8,1.9-2.6,3.7c-0.3,0.7-0.4,1.2-0.4,1.7c0,0.8,0.4,1.1,1,1.1c0.6,0,1.3-0.3,2.2-0.8c1.1-0.7,2.2-1.4,3-2.3
		C459.4,434,459.5,433.9,459.6,434C459.6,433.9,459.6,434,459.6,434z"/>
</g>
</svg>
