<?xml version="1.0" encoding="utf-8"?>
<!-- Generator: Adobe Illustrator 18.0.0, SVG Export Plug-In . SVG Version: 6.00 Build 0)  -->
<!DOCTYPE svg PUBLIC "-//W3C//DTD SVG 1.1//EN" "http://www.w3.org/Graphics/SVG/1.1/DTD/svg11.dtd">
<svg version="1.1" id="Layer_1" xmlns="http://www.w3.org/2000/svg" xmlns:xlink="http://www.w3.org/1999/xlink" x="0px" y="0px"
	 viewBox="0 357 595.3 68.2" enable-background="new 0 357 595.3 68.2" xml:space="preserve">
<g>
	<path d="M62.1,371.7c0,0.2,0,0.2-0.2,0.3c-1.9,2.6-4.1,3.8-6.6,3.8c-1.9,0-4-0.9-5.9-2.4c-0.9-0.7-2.1-1.9-4-3.5
		c-1.9-1.6-3.8-2.4-5.9-2.4c-2.4,0-5,1-7.4,3.3c-2.1,1.9-3.8,4.1-5,6.6c-1.6,3.1-2.4,6.4-2.4,9.8c0,4.1,1,7.8,3.3,10.9
		c1.6-1.7,3.1-3.8,4.5-6c0.3-0.5,0.9-1.4,1.7-2.8c-0.9,0-2.1,0-3.5,0h-0.9c-0.3,0-0.5,0-0.5-0.2c0-0.5,0.5-0.9,1.4-1.4
		c0.5-0.2,1.9-0.3,4.5-0.3c2.8-5,5.4-10,7.6-14.9c0.2-0.3,0.5-0.7,0.9-0.9h0.2c0.2,0,0.2,0,0.2,0.2c0,0,0,0.2-0.2,0.5
		c-1.6,4-4.1,9-7.6,14.9l8.8-0.2c0.3,0,0.7,0,0.7,0.2c0,0.3-1.4,0.7-4,1c-2.4,0.3-4.7,0.7-6.7,0.7c-0.3,0.5-1,1.6-1.9,3.1
		c-1.4,2.1-2.9,4.1-5,6.4c2.8,3.5,5.5,5.4,8.5,5.4c0.5,0,1,0,1.4-0.2h0.2c0.2,0,0.2,0.2,0.2,0.3c0,0.2-0.2,0.3-0.3,0.3
		c-0.7,0.2-1.6,0.2-2.8,0.3h-0.2c-3.3,0-6-1.6-8.1-4.5l-0.2,0.2c-4.7,4.7-9.7,6.9-15,6.9c-3.1,0-5.7-0.9-7.9-2.8
		c-1.6-1.2-2.2-3.1-2.2-5.5c0-1.2,0.2-2.4,0.5-3.6c1-3.1,1.7-4.5,2.2-4.5c0.2,0,0.2,0,0.2,0.2l-1,2.1c-0.7,1.4-1,2.4-1,3.3
		c0,1.4,0.5,2.9,1.6,4.1c2.2,2.9,5.5,4.5,10,4.5c4.5,0,8.6-1.9,12.4-5.5c-1.9-2.9-2.9-6.7-2.9-11.1c0-4.3,1-8.5,3.3-12.4
		c2.2-4,5.2-6.9,8.8-8.8c1.7-0.9,3.6-1.4,5.5-1.4c2.1,0,3.8,0.5,5.5,1.6c1.2,1,3.6,2.8,6.9,5.2c1.2,0.9,2.2,1.2,3.5,1.2
		c1.6,0,2.9-0.9,4.3-2.6c0-0.2,0.2-0.2,0.3-0.2C62.1,371.3,62.1,371.5,62.1,371.7z"/>
	<path d="M65.9,386.7c0,0.2-0.9,0.9-2.4,1.7c-0.9,0.5-1.9,0.9-3.3,0.9c-0.2,0-1.4,0-3.6,0.2c-1.4,0-2.2,0.2-2.6,0.2
		c-1,0.2-1.7,0.5-2.2,1.2c-1,1.6-1.6,2.8-1.6,3.6l0,0c0,0.2,0.2,0.7,0.5,1c0.7,0.7,1.6,1.6,2.6,2.8c0.5,0.9,0.9,1.9,0.9,3.1v0.2
		c0,1.9-1,4.1-2.9,6.9c-2.9,4-6.2,6-9.8,6c-2.8,0-4.1-1-4.1-3.3c0-0.7,0-0.9,0.2-0.9l0,0c0,0,0.2,0.2,0.2,0.3
		c0.3,1.2,1.9,1.7,4.5,1.7h0.2c3.5,0,6.2-1.4,8.5-4.1c1.4-1.7,2.1-3.3,2.1-4.7l0,0c0-1.6-1.4-3.5-4-5.5c-0.5-0.3-0.7-1-0.7-1.7l0,0
		c0-0.5,0.2-1.2,0.5-1.7c2.8-4.5,4.5-6.7,5.2-7.1c0.2,0,0.3-0.2,0.5-0.2h0.3c0.5,0,1.4,0,2.4,0.2c1,0.2,1.9,0.2,2.4,0.2
		c1.7,0,3.3-0.2,4.1-0.3c0.2,0,0.5-0.2,1-0.5c0.5-0.3,0.9-0.3,0.9-0.3C65.9,386.5,65.9,386.5,65.9,386.7L65.9,386.7z"/>
	<path d="M90.4,392.7c0,0.3-0.3,0.5-0.9,0.5h-3.1h-2.8c-2.4,0-3.8,0-4.1,0s-0.7-0.2-0.7-0.3c0-0.3,0.3-0.7,0.9-0.7l0,0
		c-0.2,0,0.3,0,1.7,0h1.4c0.9,0,1.9,0,3.5,0s2.8,0,3.5,0C90.2,392.4,90.4,392.6,90.4,392.7z"/>
	<path d="M158.5,371.5c0,1.4-0.3,2.9-1,4.8c-0.2,0.3-0.3,0.5-0.3,0.5c-0.2,0-0.2-0.2-0.2-0.3c0-0.2,0.2-0.7,0.5-1.4
		c0.3-0.9,0.5-1.4,0.5-1.9c0-1.4-1.2-2.2-3.6-2.2c-1.6,0-4,0.2-7.6,0.7c1.7,2.1,2.4,4.3,2.4,6.7c0,4-2.4,9.2-7.1,15.5
		c-1.9,2.6-4,4.8-6,6.7c-2.9,2.6-5.5,4-7.8,4c-2.8,0-4-2.2-4-6.9c0-0.5,0-1.7-0.2-3.5c0-1.7-0.2-3.1-0.2-4.3c0-2.2,0-6-0.2-11.7
		c-0.2-2.1-0.7-3.1-1.9-3.1c-0.7,0-1.7,0.7-2.9,1.9c-4.3,4.7-8.6,10.4-12.6,17.3c-2.6,4.5-4.8,8.6-6.4,12.4
		c-0.9,2.2-1.4,4.1-1.4,5.9v0.5c0,0.2,0,0.3-0.2,0.3c-0.3,0-0.7-1-1-3.1c0-0.2,0-0.3,0-0.5c0-0.7,0.2-1.4,0.5-2.2
		c2.2-5.2,6-11.9,11.7-19.9c4.8-6.9,8.8-11.7,11.7-14.9c1.2-1.2,2.1-1.7,2.9-1.7c1.2,0,1.7,1.6,1.7,4.5c0,1.2,0,3.1,0,5.5
		c0,2.4,0,4.3,0,5.5c0,2.8,0,4.8,0.2,6.4c0.2,2.8,0.3,4.7,0.7,5.9c0.7,2.6,1.9,3.8,3.6,3.8c1,0,2.1-0.3,3.1-1.2
		c2.6-1.9,5-4.8,7.4-8.5c4-6.4,6-11.9,6-16.8c0-2.1-0.5-3.6-1.4-4.8c-2.1,0.2-3.8,0.3-5,0.3c-2.2,0-4-0.3-5.4-1.2
		c-0.7-0.3-1-0.9-1-1.6c0-1.2,1.4-1.7,4-1.7c2.8,0,5,0.9,6.9,2.8l4.7-1c1.9-0.3,3.5-0.5,4.8-0.5
		C157.3,368.7,158.5,369.6,158.5,371.5z M144.6,370.4c-1.4-1.2-3.3-1.7-5.5-1.7s-3.5,0.3-3.3,1.2c0,0.9,1,1.2,3.1,1.2
		C140.3,371.1,142.2,371,144.6,370.4z"/>
	<path d="M159.5,389.6c1.2,0.3,2.8,0.5,4.8,0.5c1.6,0,2.9-0.2,4.1-0.5c0,0,0,0,0.2,0c0,0,0.2,0,0.2,0.2c0,0.2,0,0.2-0.2,0.2
		c-2.4,0.7-4.1,0.9-5.4,0.9h-1.4c-1.6,0-2.9-0.2-4.1-0.5c-0.3,3.3-2.1,6.4-5,9.3c-1.7,1.6-3.3,2.4-4.8,2.4c-1.4,0-2.2-0.7-2.2-2.1
		v-0.2c0-3.1,2.4-6.6,7.3-10.4c0.7-0.5,1.2-0.9,1.9-1.2c0,0,0-0.2,0.2-0.3c0.9-0.7,1.4-0.9,1.4-0.9c0.2,0,0.3,0.2,0.5,0.3
		c0.2,0.7,0.7,1.4,1.6,1.7c0,0,0.2,0,0.2-0.2c0.5-0.3,1-0.7,1.4-1.2s0.3-0.9-0.2-1.2c-0.5-0.2-0.5-0.5-0.2-0.9
		c0.3-0.3,0.7-0.5,1.2-0.5s0.9,0.2,1.2,0.5c0.2,0.5,0.2,1-0.2,1.6C161.6,388.4,160.7,389.1,159.5,389.6z M155.5,391.3v-0.5
		c0-0.9-0.2-1.4-0.7-1.4c-0.2,0-0.5,0.2-0.9,0.5c-3.6,2.8-5.5,6-5.5,9.8c0,1,0.3,1.7,1,1.7c0.3,0,0.9-0.2,1.4-0.7
		C154,398.6,155.5,395.5,155.5,391.3z"/>
	<path d="M178.7,392.7c0,0,0,0.2-0.2,0.3c-3.8,4.5-7.8,7.8-11.7,9.7c-1.7,0.9-3.1,1.2-4,1.2c-1.2,0-1.7-0.5-1.7-1.7
		c0-0.9,0.5-2.2,1.4-4c0.7-1.2,2.8-4.7,6-10.2c0.5-0.9,0.9-1.2,1.2-1.2s0.7,0.5,0.9,1.4v0.2c0,0.2,0,0.5-0.2,0.7
		c-1,1.2-1.9,2.4-2.6,3.6c-1.7,2.9-2.9,5.2-3.5,7.1c-0.2,0.3-0.2,0.7-0.2,1c0,1,0.5,1.6,1.4,1.6c0.2,0,0.5,0,0.9-0.2
		C170.4,401,174.5,397.7,178.7,392.7l0.2-0.3C178.7,392.6,178.7,392.6,178.7,392.7z M175.1,381c0,0.5-0.2,1-0.7,1.6
		c-0.5,0.5-1,0.9-1.6,0.9s-0.9-0.3-0.9-0.9c0-0.5,0.2-1.2,0.7-1.7c0.5-0.5,1-0.9,1.6-0.9C174.9,380.1,175.1,380.5,175.1,381z"/>
	<path d="M207,389.4c0,0.2-0.2,0.2-0.3,0.2c-4.3,0.3-8.5,0.5-12.4,0.7c-1,2.1-1.9,4.1-2.6,6c-0.3,1.2-0.7,2.1-0.7,2.8
		c0,1,0.5,1.6,1.7,1.6c1.2,0,2.9-0.3,4.8-1.2c1.9-0.9,2.8-1.2,2.4-1.2c0.2,0,0.3,0.2,0.3,0.2c0,0.2,0,0.2-0.2,0.3
		c-1.2,0.7-2.6,1.4-4.3,1.9c-1.9,0.7-3.5,1-4.7,1c-1.7,0-2.8-0.7-2.8-2.2c0-1.6,1.4-4.7,4.1-9.2h-3.8c-0.2,0-0.3,0-0.3-0.2
		c0-0.3,0.2-0.5,0.5-0.5c1.4,0,2.8,0,4.1,0c0.7-1.2,2.1-3.1,4.1-5.7c2.4-3.3,3.8-4.8,4.1-4.8c0.2,0,0.3,0,0.3,0.2
		c0,0-0.2,0.2-0.3,0.3c-1.9,2.6-4.1,5.9-6.7,10l12.1-0.3C206.8,389.4,207,389.4,207,389.4z"/>
	<path d="M222.6,387c0,0.2,0,0.5-0.2,0.9l-0.9,1.9c0,0.2-0.2,0.2-0.2,0.2c-0.2,0-0.2,0-0.2-0.2l0,0c0-0.2,0-0.3,0-0.5
		c0-0.9-0.5-1.6-1.4-1.7c-0.5,0-0.9-0.2-1.2-0.2c-4,0-7.6,2.9-11.2,8.8c-0.2,0.3-1.4,2.2-3.3,5.7c-0.2,0.3-0.3,0.5-0.5,0.5
		c-0.3,0-0.7-0.5-1-1.4c0,0,0-0.2,0-0.3c0-0.3,0-0.5,0.2-0.9c1.4-2.6,3.1-5.7,5.2-9.7c0.5-1,1-1.6,1.9-1.6c0.3,0,0.5,0.2,0.5,0.3
		c0,0.2-0.7,1.7-2.1,4.5c2.6-3.1,5.4-5.5,8.5-7.4c1.4-0.9,2.6-1.2,3.6-1.2C221.7,385.1,222.6,385.6,222.6,387z"/>
	<path d="M237.8,397.7c0,0.2,0,0.2-0.2,0.3c-2.4,3.1-5,5.5-7.6,6.9c-1,0.5-1.9,0.9-2.8,0.9c-1,0-1.9-0.3-2.4-0.9
		c-0.5-0.5-1-1.4-1-2.4c0-1.4,0.7-3.5,2.2-6.4c-3.3,4-5.5,6-7.1,6c-0.9,0-1.4-0.5-1.4-1.4c0-0.3,0-0.7,0.2-1c1.9-5.2,4.8-9,9-11.4
		c0.7-0.3,1.4-0.7,2.1-0.7s1.4,0.2,2.1,0.7c0.5-0.7,1-1,1.4-1c0.2,0,0.2,0,0.2,0.2c0,0,0,0.2-0.2,0.5c-1.4,2.1-2.6,4.3-3.6,6.9
		c-1.4,3.1-2.1,5.5-2.1,7.4c0,1.7,0.7,2.6,2.1,2.6c0.5,0,1-0.2,1.4-0.3c2.6-1.2,5-3.5,7.3-6.9c0,0,0.2-0.2,0.3-0.2
		C237.6,397.6,237.8,397.6,237.8,397.7z M229,389.8c-0.5-0.5-1-0.9-1.6-0.9c-0.7,0-1.4,0.3-2.1,1.2c-2.2,2.6-3.8,5.5-4.8,8.8
		c-0.2,0.3-0.2,0.7-0.2,1.2c0,0.3,0.2,0.5,0.3,0.5c0.2,0,0.3,0,0.7-0.2c1.4-1,2.9-2.8,4.8-5.5C227.2,393.4,228.3,391.7,229,389.8z
		 M230.2,384.6c0,0-0.2-0.2-0.3-0.5v-0.2v-0.2c0.3-0.5,1.2-1.4,2.6-2.2c1.7-1,2.6-1.7,2.8-1.9c0.7-0.7,1.2-1.4,1.2-2.1
		c0-1-0.7-1.6-1.9-1.6c-0.5,0-1.2,0.2-1.9,0.5c-0.7,0.3-1.2,0.7-1.7,1.2c0,0-0.2,0.2-0.3,0.2h-0.3c0.3-0.9,0.3-1.2,0.3-1.2
		c0,0.2,0,0,0.3-0.2c0.9-0.7,2.1-1,3.3-1c2.1,0,3.1,0.7,3.1,2.2c0,1.2-1,2.6-2.9,4c-0.3,0.3-1.2,0.9-2.2,1.7c-0.7,0.5-1,1.2-1,2.1
		v0.5l-0.7-0.3C230.2,384.8,230.2,384.6,230.2,384.6z"/>
	<path d="M253.3,392.7c0,0,0,0.2-0.2,0.3c-3.8,4.5-7.8,7.8-11.7,9.7c-1.7,0.9-3.1,1.2-4,1.2c-1.2,0-1.7-0.5-1.7-1.7
		c0-0.9,0.5-2.2,1.4-4c0.7-1.2,2.8-4.7,6-10.2c0.5-0.9,0.9-1.2,1.2-1.2s0.7,0.5,0.9,1.4v0.2c0,0.2,0,0.5-0.2,0.7
		c-1,1.2-1.9,2.4-2.6,3.6c-1.7,2.9-2.9,5.2-3.5,7.1c-0.2,0.3-0.2,0.7-0.2,1c0,1,0.5,1.6,1.4,1.6c0.2,0,0.5,0,0.9-0.2
		C245,401,249.2,397.7,253.3,392.7l0.2-0.3C253.1,392.6,253.3,392.6,253.3,392.7z M249.5,381c0,0.5-0.2,1-0.7,1.6
		c-0.5,0.5-1,0.9-1.6,0.9c-0.5,0-0.9-0.3-0.9-0.9c0-0.5,0.2-1.2,0.7-1.7c0.5-0.5,1-0.9,1.6-0.9C249.3,380.1,249.5,380.5,249.5,381z"
		/>
	<path d="M281.8,400.2c0,0.5-0.9,1.4-2.6,2.2c-1.4,0.9-2.6,1.4-3.3,1.6c-1,0.3-2.1,0.5-3.1,0.5c-2.4,0-3.6-1-3.6-3.1
		c0-1.4,1.4-5,4.3-10.9c0-0.2,0.2-0.3,0.2-0.3c0-0.2-0.2-0.3-0.3-0.3s-0.2,0-0.3,0.2c-2.9,1.9-6.2,5.7-10,11.2
		c-0.7,0.9-1.4,1.4-2.2,1.4h-0.2c-0.2,0-0.2-0.2-0.2-0.3c0-0.2,0-0.3,0.2-0.5c1.6-2.8,3.6-6.9,6.2-12.4c0.3-0.9,1.2-1.6,2.6-1.9h0.2
		c0.2,0,0.2,0.2,0.2,0.2c0,0.2,0,0.5-0.2,0.7c-1.2,2.2-2.4,4.8-3.8,7.9c2.1-2.6,4.5-5,7.4-7.3c1-0.9,1.9-1.4,2.4-1.4h0.2
		c0.7,0,1,0.3,1,1c0,0.2,0,0.3-0.2,0.5c-1.4,2.4-2.4,4.1-2.8,4.8c-1.2,2.6-1.9,4.8-1.9,6.6c0,1.9,0.9,2.9,2.8,2.9
		c2.4,0,4.7-1.2,6.7-3.6l0.2-0.2C281.8,400,281.8,400,281.8,400.2z"/>
	<path d="M296.5,394.8c0,0.2,0,0.2-0.2,0.3c-1.2,1.9-3.6,3.8-6.9,5.4c-2.1,1-4.3,1.9-6.7,2.8c-4.7,8.3-8.6,13.8-12.1,16.8
		c-4.1,3.5-7.9,5.2-11.7,5.2c-2.1,0-4-0.5-5.7-1.6c-1.9-1.2-2.9-2.8-2.9-4.7c0-4.8,5.9-8.8,17.6-12.1c3.8-1,8.5-2.4,14-4
		c0.2-0.3,0.5-0.9,0.9-1.7c1.2-2.4,2.2-4.5,3.1-6.4c-3.1,4-5.9,5.9-8.1,5.9c-1,0-1.7-0.5-1.7-1.7c0-0.3,0.2-0.9,0.3-1.4
		c0.9-1.9,2.1-3.6,3.6-5.4c1.7-1.9,3.3-3.3,5.2-4c1-0.5,2.1-0.7,2.9-0.7c0.5,0,1,0,1.2,0.2c0.2-0.3,0.5-0.9,1-1.7
		c0.7-1,1.2-1.7,1.6-1.7s0.5,0.2,0.5,0.5v0.3c0,0.7-0.3,1.7-1.2,3.3c-1.4,2.4-4,6.9-7.8,13.1l-0.5,0.7c1.9-0.7,4-1.4,6-2.6
		c3.3-1.6,5.5-3.3,6.7-5.2c0.2-0.2,0.2-0.2,0.3-0.2C296.3,394.6,296.5,394.6,296.5,394.8z M281.3,403.8l-15,5
		c-6.7,2.6-11.1,5-13,7.6c-1.2,1.4-1.7,2.8-1.7,3.8c0,1.4,0.7,2.4,2.1,3.1c1,0.5,2.4,0.7,4,0.7c4.7,0,9.3-2.4,14.2-7.1
		C275.1,413.5,278.4,409,281.3,403.8z M288.9,388.8c-0.3-0.2-0.9-0.2-1.6-0.2c-1,0-1.7,0.2-2.4,0.7c-1.2,0.9-2.6,2.4-4,4.7
		c-1.6,2.4-2.4,4.1-2.4,5.4c0,0.3,0.2,0.5,0.5,0.5h0.2c0.5,0,1.2-0.3,2.2-1.2C283.6,396.7,286,393.6,288.9,388.8z"/>
	<path d="M302,396.5c0.9-1.9,1.6-3.8,2.1-5.7c0-0.2,0.2-0.5,0.2-0.7c0-0.3-0.2-0.5-0.3-0.5c-0.2,0-0.5,0.2-0.9,0.3
		c-2.1,1.4-3.6,2.8-4.7,4.1c-0.9,1.2-2.1,3.1-3.6,6c-0.3,0.5-0.7,0.9-1,1.2c-0.3,0.2-0.7,0.5-1,0.7c-0.3,0.3-0.7,0.3-0.9,0.3
		c-0.2,0-0.2,0-0.2-0.2c0-0.2,0-0.2,0-0.3c4-7.8,9-15.9,14.9-24.4c2.6-3.6,5.4-7.1,8.6-10.5c3.8-4,7.3-6.9,10.4-8.6
		c1.6-0.9,3.1-1.4,4.5-1.4c2.4,0,3.8,0.7,4.5,2.2c0.2,0.9,0.3,1.6,0.5,2.4l0,0c0,0.2,0,0.2-0.2,0.2c-0.2,0-0.2-0.2-0.2-0.2
		c-0.7-1.7-2.4-2.6-5.2-2.6c-4.1,0-8.5,2.6-13.1,7.6c-2.2,2.4-5.4,6.6-9.2,12.6c-3.5,5.4-5.9,9.5-7.6,12.4c3.8-3.1,6-4.7,6.7-4.7
		c0.5,0,0.7,0.3,0.7,1.2c0,0.5-0.2,1.4-0.5,2.2c-0.5,1.2-1,2.6-1.6,4c-0.9,2.1-1.4,4-1.4,5.5c0,1.9,0.9,2.9,2.8,2.9
		c2.4,0,4.7-1.2,6.6-3.6c0.2,0,0.2-0.2,0.2-0.2c0.2,0,0.2,0,0.2,0.2c0,0.5-0.9,1.4-2.6,2.2c-1.4,0.9-2.6,1.4-3.3,1.6
		c-1,0.3-2.1,0.5-3.1,0.5c-2.4,0-3.6-1-3.6-3.1C300.5,400.7,301,398.9,302,396.5z"/>
	<path d="M328,392.7c0,0,0,0.2-0.2,0.3c-3.8,4.5-7.8,7.8-11.7,9.7c-1.7,0.9-3.1,1.2-4,1.2c-1.2,0-1.7-0.5-1.7-1.7
		c0-0.9,0.5-2.2,1.4-4c0.7-1.2,2.8-4.7,6-10.2c0.5-0.9,0.9-1.2,1.2-1.2c0.3,0,0.7,0.5,0.9,1.4v0.2c0,0.2,0,0.5-0.2,0.7
		c-1,1.2-1.9,2.4-2.6,3.6c-1.7,2.9-2.9,5.2-3.5,7.1c-0.2,0.3-0.2,0.7-0.2,1c0,1,0.5,1.6,1.4,1.6c0.2,0,0.5,0,0.9-0.2
		C319.7,401,323.8,397.7,328,392.7l0.2-0.3C328,392.6,328,392.6,328,392.7z M324.3,381c0,0.5-0.2,1-0.7,1.6c-0.5,0.5-1,0.9-1.6,0.9
		c-0.5,0-0.9-0.3-0.9-0.9c0-0.5,0.2-1.2,0.7-1.7c0.5-0.5,1-0.9,1.6-0.9C324,380.1,324.3,380.5,324.3,381z"/>
	<path d="M341.3,395.3c0,0,0,0.2-0.2,0.3c-3.5,3.3-7.3,5.5-11.4,6.6c-1,0.3-2.2,0.5-3.3,0.5h-0.2c-2.2,0-3.5-0.9-3.5-2.8
		c0-1,0.3-2.4,1.2-4c1.9-3.5,4.7-6,7.9-7.6c1.4-0.5,2.4-0.9,3.3-0.9l0,0c1,0,1.4,0.3,1.4,1.2c0,2.6-3.6,5-10.7,7.6
		c-0.5,1.2-0.9,2.2-0.9,2.9v0.2c0,1.6,1,2.2,2.9,2.2h0.2c0.7,0,1.4,0,2.1-0.2c3.8-1,7.3-3.1,10.4-6.2l0.2-0.2
		C341.3,395.1,341.3,395.1,341.3,395.3z M325,406.2c-0.9,0.2-1.4,0.7-1.7,1.7c0,0.2,0,0.3,0,0.7c0,0.2,0.2,0.5,0.5,0.7
		c0.3,0.3,0.9,0.3,1.4,0c0.5-0.3,0.9-0.9,0.9-1.4c0.2-0.5,0-0.9,0-1.4C326,406,325.5,406,325,406.2z M334.5,390.1v-0.3
		c0-0.9-0.3-1.2-1-1.2c-0.3,0-0.9,0.2-1.4,0.5c-2.2,1.6-4.1,3.8-5.4,6.6C331.6,394.1,334.2,392.2,334.5,390.1z M339,386l-0.9,0.5
		c-0.2,0-0.2-0.2-0.2-0.3l-0.2-3.3c0-0.2,0-0.2-0.2-0.2c0,0-0.2,0-0.3,0.2c-1,0.7-1.9,1.2-2.2,1.4c-1.7,1.2-2.6,1.7-2.8,1.9
		c-0.2,0-0.2,0-0.2-0.2c0-0.2,0.2-0.3,0.3-0.5c0.9-0.7,1.6-1.2,1.9-1.4c2.1-1.4,3.3-2.1,3.8-2.4c0,0,0.2,0,0.5,0
		c0.2,0,0.2,0,0.2,0.2c0,0.3,0,1,0.2,1.9c0.2,0.9,0.2,1.4,0.2,1.9C339.2,385.6,339.2,385.8,339,386z"/>
	<path d="M366.8,393.1c0,0,0,0.2-0.2,0.3c-2.2,3.8-5.5,6.7-10,9.2c-1.6,0.9-2.9,1.2-4.1,1.2c-1.2,0-1.9-0.5-1.9-1.7
		c0-0.7,0.2-1.4,0.7-2.2c1.4-2.4,2.6-4.7,3.6-6.7c0.3-0.5,0.3-1,0.3-1.4c0-0.3-0.2-0.7-0.5-0.7c-0.3,0-0.7,0.2-1,0.3
		c-1.6,1-3.1,2.8-4.8,5c-1.7,2.4-2.8,3.6-3.5,3.6h-0.2c-0.5,0-0.7-0.3-0.7-0.7c0-0.2,0.2-0.5,0.3-0.7c1.9-2.4,3.3-4.8,4.3-7.3
		c0-0.2,0.2-0.3,0.2-0.7c0-0.2-0.2-0.3-0.3-0.3c-0.2,0-0.3,0-0.7,0.2c-2.4,1.6-4.7,3.6-6.6,6.6c-0.3,0.9-1,2.1-2.1,3.6
		c-0.2,0.2-0.3,0.3-0.5,0.3c-0.3,0-0.7-0.3-0.7-1.2c0-0.2,0-0.3,0.2-0.7c0.3-1,1.2-2.9,2.8-5.7c2.4-4.7,4-6.9,4.7-6.9
		c0.2,0,0.5,0.3,0.9,0.9v0.2c0,0.2,0,0.3-0.2,0.5c-0.3,0.5-1.6,2.4-3.5,5.9c0,0,0,0,0.2-0.2c1.9-2.2,4.3-4,7.1-5.5
		c0.3-0.2,0.7-0.3,1-0.3s0.5,0.2,0.5,0.7s-0.3,1.2-1,2.4c-0.7,1.2-1,1.9-1,1.9s0.2,0,0.2-0.2c1.7-1.7,3.6-2.9,5.5-3.8
		c0.3-0.2,0.5-0.2,0.7-0.2c0.5,0,0.9,0.2,1,0.7v0.2c0,0.3-0.2,1-0.5,1.7c-1.7,3.3-2.9,5.7-3.8,7.6c-0.2,0.5-0.3,1-0.3,1.4
		c0,0.9,0.3,1.2,1.2,1.2c0.5,0,1-0.2,1.6-0.3c4.3-2.1,7.6-5,9.8-9c0.2-0.2,0.2-0.2,0.3-0.2S366.8,392.9,366.8,393.1z"/>
	<path d="M395.2,400.2c0,0.5-0.9,1.4-2.6,2.2c-1.4,0.9-2.6,1.4-3.3,1.6c-1,0.3-2.1,0.5-3.1,0.5c-2.4,0-3.6-1-3.6-3.1
		c0-1.4,1.4-5,4.3-10.9c0-0.2,0.2-0.3,0.2-0.3c0-0.2-0.2-0.3-0.3-0.3c-0.2,0-0.2,0-0.3,0.2c-2.9,1.9-6.2,5.7-10,11.2
		c-0.7,0.9-1.4,1.4-2.2,1.4h-0.2c-0.2,0-0.2-0.2-0.2-0.3c0-0.2,0-0.3,0.2-0.5c1.6-2.8,3.6-6.9,6.2-12.4c0.3-0.9,1.2-1.6,2.6-1.9h0.2
		c0.2,0,0.2,0.2,0.2,0.2c0,0.2,0,0.5-0.2,0.7c-1.2,2.2-2.4,4.8-3.8,7.9c2.1-2.6,4.5-5,7.4-7.3c1-0.9,1.9-1.4,2.4-1.4h0.2
		c0.7,0,1,0.3,1,1c0,0.2,0,0.3-0.2,0.5c-1.4,2.4-2.4,4.1-2.8,4.8c-1.2,2.6-1.9,4.8-1.9,6.6c0,1.9,0.9,2.9,2.8,2.9
		c2.4,0,4.7-1.2,6.7-3.6l0.2-0.2C395.2,400,395.2,400,395.2,400.2z"/>
	<path d="M409.8,394.8c0,0.2,0,0.2-0.2,0.3c-1.2,1.9-3.6,3.8-6.9,5.4c-2.1,1-4.3,1.9-6.7,2.8c-4.7,8.3-8.6,13.8-12.1,16.8
		c-4.1,3.5-7.9,5.2-11.7,5.2c-2.1,0-4-0.5-5.7-1.6c-1.9-1.2-2.9-2.8-2.9-4.7c0-4.8,5.9-8.8,17.6-12.1c3.8-1,8.5-2.4,14-4
		c0.2-0.3,0.5-0.9,0.9-1.7c1.2-2.4,2.2-4.5,3.1-6.4c-3.1,4-5.9,5.9-8.1,5.9c-1,0-1.7-0.5-1.7-1.7c0-0.3,0.2-0.9,0.3-1.4
		c0.9-1.9,1.9-3.6,3.6-5.4c1.7-1.9,3.3-3.3,5.2-4c1-0.5,2.1-0.7,2.9-0.7c0.5,0,1,0,1.2,0.2c0.2-0.3,0.5-0.9,1-1.7
		c0.7-1,1.2-1.7,1.6-1.7c0.3,0,0.5,0.2,0.5,0.5v0.3c0,0.7-0.3,1.7-1.2,3.3c-1.4,2.4-4,6.9-7.8,13.1l-0.5,0.7c1.9-0.7,4-1.4,6-2.6
		c3.3-1.6,5.5-3.3,6.7-5.2c0.2-0.2,0.2-0.2,0.3-0.2C409.8,394.6,409.8,394.6,409.8,394.8z M394.6,403.8l-15.2,5
		c-6.7,2.6-11.1,5-13,7.6c-1.2,1.4-1.7,2.8-1.7,3.8c0,1.4,0.7,2.4,2.1,3.1c1,0.5,2.4,0.7,4,0.7c4.7,0,9.3-2.4,14.2-7.1
		C388.6,413.5,391.7,409,394.6,403.8z M402.2,388.8c-0.3-0.2-0.9-0.2-1.6-0.2c-1,0-1.7,0.2-2.4,0.7c-1.2,0.9-2.6,2.4-4,4.7
		c-1.6,2.4-2.4,4.1-2.4,5.4c0,0.3,0.2,0.5,0.5,0.5h0.2c0.5,0,1.2-0.3,2.2-1.2C396.9,396.7,399.5,393.6,402.2,388.8z"/>
	<path d="M415.4,396.5c0.9-1.9,1.6-3.8,2.1-5.7c0-0.2,0.2-0.5,0.2-0.7c0-0.3-0.2-0.5-0.3-0.5c-0.2,0-0.5,0.2-0.9,0.3
		c-2.1,1.4-3.6,2.8-4.7,4.1c-0.9,1.2-2.1,3.1-3.6,6c-0.3,0.5-0.7,0.9-1,1.2c-0.3,0.2-0.7,0.5-0.9,0.7c-0.3,0.3-0.7,0.3-0.9,0.3
		c-0.2,0-0.2,0-0.2-0.2c0-0.2,0-0.2,0-0.3c4-7.8,9-15.9,14.9-24.4c2.6-3.6,5.4-7.1,8.6-10.5c3.8-4,7.3-6.9,10.4-8.6
		c1.6-0.9,3.1-1.4,4.5-1.4c2.4,0,3.8,0.7,4.5,2.2c0.2,0.9,0.3,1.6,0.5,2.4l0,0c0,0.2,0,0.2-0.2,0.2c-0.2,0-0.2-0.2-0.2-0.2
		c-0.7-1.7-2.4-2.6-5.2-2.6c-4.1,0-8.5,2.6-13.1,7.6c-2.2,2.4-5.4,6.6-9.2,12.6c-3.5,5.4-5.9,9.5-7.6,12.4c3.8-3.1,6-4.7,6.7-4.7
		c0.5,0,0.7,0.3,0.7,1.2c0,0.5-0.2,1.4-0.5,2.2c-0.5,1.2-1,2.6-1.6,4c-0.9,2.1-1.4,4-1.4,5.5c0,1.9,0.9,2.9,2.8,2.9
		c2.4,0,4.7-1.2,6.6-3.6c0.2,0,0.2-0.2,0.2-0.2c0.2,0,0.2,0,0.2,0.2c0,0.5-0.9,1.4-2.6,2.2c-1.4,0.9-2.6,1.4-3.3,1.6
		c-1,0.3-2.2,0.5-3.1,0.5c-2.4,0-3.6-1-3.6-3.1C413.8,400.7,414.3,398.9,415.4,396.5z"/>
	<path d="M442.3,395.3c0,0,0,0.2-0.2,0.3c-3.5,3.3-7.3,5.5-11.4,6.6c-1,0.3-2.2,0.5-3.3,0.5h-0.2c-2.2,0-3.5-0.9-3.5-2.8
		c0-1,0.3-2.4,1.2-4c1.9-3.5,4.7-6,7.9-7.6c1.4-0.5,2.4-0.9,3.3-0.9l0,0c1,0,1.4,0.3,1.4,1.2c0,2.6-3.6,5-10.7,7.6
		c-0.5,1.2-0.9,2.2-0.9,2.9v0.2c0,1.6,1,2.2,2.9,2.2h0.2c0.7,0,1.4,0,2.1-0.2c3.8-1,7.3-3.1,10.4-6.2l0.2-0.2
		C442.3,395.1,442.3,395.1,442.3,395.3z M426.1,406.2c-0.9,0.2-1.4,0.7-1.7,1.7c0,0.2,0,0.3,0,0.7c0,0.2,0.2,0.5,0.5,0.7
		c0.3,0.3,0.9,0.3,1.4,0c0.5-0.3,0.9-0.9,0.9-1.4c0.2-0.5,0-0.9,0-1.4C426.9,406.2,426.6,406,426.1,406.2z M435.4,390.1v-0.3
		c0-0.9-0.3-1.2-1-1.2c-0.3,0-0.9,0.2-1.4,0.5c-2.2,1.6-4.1,3.8-5.4,6.6C432.6,394.1,435.2,392.2,435.4,390.1z M440.1,386l-0.9,0.5
		c-0.2,0-0.2-0.2-0.2-0.3l-0.2-3.3c0-0.2,0-0.2-0.2-0.2c0,0-0.2,0-0.3,0.2c-1,0.7-1.9,1.2-2.2,1.4c-1.7,1.2-2.6,1.7-2.8,1.9
		c-0.2,0-0.2,0-0.2-0.2c0-0.2,0.2-0.3,0.3-0.5c0.9-0.7,1.6-1.2,1.9-1.4c2.1-1.4,3.3-2.1,3.8-2.4c0,0,0.2,0,0.5,0
		c0.2,0,0.2,0,0.2,0.2c0,0.3,0,1,0.2,1.9c0.2,0.9,0.2,1.4,0.2,1.9C440.2,385.6,440.2,385.8,440.1,386z"/>
	<path d="M472.6,389.4c0,0.2-0.2,0.2-0.3,0.2c-4.3,0.3-8.5,0.5-12.4,0.7c-1,2.1-1.9,4.1-2.6,6c-0.3,1.2-0.7,2.1-0.7,2.8
		c0,1,0.5,1.6,1.7,1.6s2.9-0.3,4.8-1.2c1.9-0.9,2.8-1.2,2.4-1.2c0.2,0,0.3,0.2,0.3,0.2c0,0.2,0,0.2-0.2,0.3
		c-1.2,0.7-2.6,1.4-4.3,1.9c-1.9,0.7-3.5,1-4.7,1c-1.7,0-2.8-0.7-2.8-2.2c0-1.6,1.4-4.7,4.1-9.2h-3.8c-0.2,0-0.3,0-0.3-0.2
		c0-0.3,0.2-0.5,0.5-0.5c1.4,0,2.8,0,4.1,0c0.7-1.2,2.1-3.1,4.1-5.7c2.4-3.3,3.8-4.8,4.1-4.8c0.2,0,0.3,0,0.3,0.2
		c0,0-0.2,0.2-0.3,0.3c-1.9,2.6-4.1,5.9-6.7,10l12.1-0.3C472.4,389.4,472.6,389.4,472.6,389.4z"/>
	<path d="M474.5,396.5c0.9-1.9,1.6-3.8,2.1-5.7c0-0.2,0.2-0.5,0.2-0.7c0-0.3-0.2-0.5-0.3-0.5c-0.2,0-0.5,0.2-0.9,0.3
		c-2.1,1.4-3.6,2.8-4.7,4.1c-0.9,1.2-2.1,3.1-3.6,6c-0.3,0.5-0.7,0.9-1,1.2c-0.3,0.2-0.7,0.5-0.9,0.7c-0.3,0.3-0.7,0.3-0.9,0.3
		s-0.2,0-0.2-0.2c0-0.2,0-0.2,0-0.3c4-7.8,9-15.9,14.9-24.4c2.6-3.6,5.4-7.1,8.6-10.5c3.8-4,7.3-6.9,10.4-8.6
		c1.6-0.9,3.1-1.4,4.5-1.4c2.4,0,3.8,0.7,4.5,2.2c0.2,0.9,0.3,1.6,0.5,2.4l0,0c0,0.2,0,0.2-0.2,0.2c-0.2,0-0.2-0.2-0.2-0.2
		c-0.7-1.7-2.4-2.6-5.2-2.6c-4.1,0-8.5,2.6-13.1,7.6c-2.2,2.4-5.4,6.6-9.2,12.6c-3.5,5.4-5.9,9.5-7.6,12.4c3.8-3.1,6-4.7,6.7-4.7
		c0.5,0,0.7,0.3,0.7,1.2c0,0.5-0.2,1.4-0.5,2.2c-0.5,1.2-1,2.6-1.6,4c-0.9,2.1-1.4,4-1.4,5.5c0,1.9,0.9,2.9,2.8,2.9
		c2.4,0,4.7-1.2,6.6-3.6c0.2,0,0.2-0.2,0.2-0.2c0.2,0,0.2,0,0.2,0.2c0,0.5-0.9,1.4-2.6,2.2c-1.4,0.9-2.6,1.4-3.3,1.6
		c-1,0.3-2.2,0.5-3.1,0.5c-2.4,0-3.6-1-3.6-3.1C473.1,400.7,473.4,398.9,474.5,396.5z"/>
	<path d="M505,395.1c0,0,0,0.2-0.2,0.2c-3.8,4.5-7.1,6.9-10.2,6.9c-2.1,0-3.1-1-3.1-3.1c0-0.7,0.2-1.2,0.3-1.9
		c-1.2,1.4-2.1,2.2-2.8,2.9c-1.4,1.2-2.4,1.7-3.3,1.7c-0.7,0-1-0.3-1-1.2c0-0.5,0.2-1,0.5-1.9c1.2-2.9,2.8-5.9,4.7-9
		c0.2-0.2,0.5-0.7,1-1.6c0.3-0.5,1-0.9,2.2-1c0.3,0.2,0.5,0.2,0.5,0.3c0,0.3-0.2,0.9-0.7,1.4c-0.7,0.7-1.2,1.2-1.2,1.4
		c-1.6,2.6-2.8,5-3.6,7.3c-0.3,0.9-0.5,1.4-0.5,1.7s0.2,0.7,0.3,0.7c0.7,0,1.9-1,3.5-3.3c1.2-1.9,3.1-4.8,5.7-8.6
		c0.2-0.3,0.5-0.5,0.9-0.5c0.5,0,0.7,0.3,0.7,1.2c0,0.3-0.2,0.7-0.3,1.2c-2.9,4.3-4.5,7.4-4.5,9.5c0,1.2,0.7,1.9,1.9,1.9
		c0.3,0,0.9-0.2,1.7-0.3C500,400.5,502.4,398.4,505,395.1C505,395,505.2,395,505,395.1C505.2,395,505,395,505,395.1z"/>
	<path d="M520.6,397.7c0,0.2,0,0.2-0.2,0.3c-2.4,3.1-5,5.5-7.6,6.9c-1,0.5-1.9,0.9-2.8,0.9c-1,0-1.9-0.3-2.4-0.9
		c-0.7-0.7-1-1.4-1-2.4c0-1.4,0.7-3.5,2.2-6.4c-3.3,4-5.5,6-7.1,6c-0.9,0-1.4-0.5-1.4-1.4c0-0.3,0-0.7,0.2-1c1.9-5.2,4.8-9,9-11.4
		c0.7-0.3,1.4-0.7,2.1-0.7c0.7,0,1.4,0.2,2.1,0.7c0.5-0.7,1-1,1.4-1c0.2,0,0.2,0,0.2,0.2c0,0,0,0.2-0.2,0.5
		c-1.4,2.1-2.6,4.3-3.6,6.9c-1.4,3.1-2.1,5.5-2.1,7.4c0,1.7,0.7,2.6,2.1,2.6c0.5,0,1-0.2,1.4-0.3c2.6-1.2,5-3.5,7.3-6.9
		c0,0,0.2-0.2,0.3-0.2C520.6,397.6,520.6,397.6,520.6,397.7z M502.8,406.2c-0.9,0.2-1.4,0.7-1.7,1.7c0,0.2,0,0.3,0,0.7
		c0,0.2,0.2,0.5,0.5,0.7c0.3,0.3,0.9,0.3,1.4,0c0.5-0.3,0.9-0.9,0.9-1.4c0.2-0.5,0-0.9,0-1.4C503.7,406.2,503.3,406,502.8,406.2z
		 M511.9,389.8c-0.5-0.5-1-0.9-1.6-0.9c-0.7,0-1.4,0.3-2.1,1.2c-2.2,2.6-3.8,5.5-4.8,8.8c-0.2,0.3-0.2,0.7-0.2,1.2
		c0,0.3,0.2,0.5,0.3,0.5c0.2,0,0.3,0,0.7-0.2c1.4-1,2.9-2.8,4.8-5.5C510,393.4,511.1,391.7,511.9,389.8z M516.8,386l-0.9,0.5
		c-0.2,0-0.2-0.2-0.2-0.3l-0.2-3.3c0-0.2,0-0.2-0.2-0.2c0,0-0.2,0-0.3,0.2c-1,0.7-1.9,1.2-2.2,1.4c-1.7,1.2-2.6,1.7-2.8,1.9
		c-0.2,0-0.2,0-0.2-0.2c0-0.2,0.2-0.3,0.3-0.5c0.9-0.7,1.6-1.2,1.9-1.4c2.1-1.4,3.3-2.1,3.8-2.4c0,0,0.2,0,0.5,0
		c0.2,0,0.2,0,0.2,0.2c0,0.3,0,1,0.2,1.9c0.2,0.9,0.2,1.4,0.2,1.9C517.1,385.6,517,385.8,516.8,386z"/>
	<path d="M538.9,389.4c0,0.2-0.2,0.2-0.3,0.2c-4.3,0.3-8.5,0.5-12.4,0.7c-1,2.1-1.9,4.1-2.6,6c-0.3,1.2-0.7,2.1-0.7,2.8
		c0,1,0.5,1.6,1.7,1.6c1.2,0,2.9-0.3,4.8-1.2c1.9-0.9,2.8-1.2,2.4-1.2c0.2,0,0.3,0.2,0.3,0.2c0,0.2,0,0.2-0.2,0.3
		c-1.2,0.7-2.6,1.4-4.3,1.9c-1.9,0.7-3.5,1-4.7,1c-1.7,0-2.8-0.7-2.8-2.2c0-1.6,1.4-4.7,4.1-9.2h-3.8c-0.2,0-0.3,0-0.3-0.2
		c0-0.3,0.2-0.5,0.5-0.5c1.4,0,2.8,0,4.1,0c0.7-1.2,2.1-3.1,4.1-5.7c2.4-3.3,3.8-4.8,4.1-4.8c0.2,0,0.3,0,0.3,0.2
		c0,0-0.2,0.2-0.3,0.3c-1.9,2.6-4.1,5.9-6.7,10l12.1-0.3C538.7,389.4,538.9,389.4,538.9,389.4z"/>
	<path d="M567.1,389.4c0,0.2-0.2,0.2-0.3,0.2c-4.3,0.3-8.5,0.5-12.4,0.7c-1,2.1-1.9,4.1-2.6,6c-0.3,1.2-0.7,2.1-0.7,2.8
		c0,1,0.5,1.6,1.7,1.6s2.9-0.3,4.8-1.2c1.9-0.9,2.8-1.2,2.4-1.2c0.2,0,0.3,0.2,0.3,0.2c0,0.2,0,0.2-0.2,0.3
		c-1.2,0.7-2.6,1.4-4.3,1.9c-1.9,0.7-3.5,1-4.7,1c-1.7,0-2.8-0.7-2.8-2.2c0-1.6,1.4-4.7,4.1-9.2h-3.8c-0.2,0-0.3,0-0.3-0.2
		c0-0.3,0.2-0.5,0.5-0.5c1.4,0,2.8,0,4.1,0c0.7-1.2,2.1-3.1,4.1-5.7c2.4-3.3,3.8-4.8,4.1-4.8c0.2,0,0.3,0,0.3,0.2
		c0,0-0.2,0.2-0.3,0.3c-1.9,2.6-4.1,5.9-6.7,10l12.1-0.3C566.9,389.4,567.1,389.4,567.1,389.4z"/>
	<path d="M585,389.8c0,0.2-0.2,0.2-0.3,0.2c-2.4,0.7-4.1,0.9-5.2,0.9h-1.4c-1.6,0-2.9-0.2-4.1-0.5c-0.3,3.3-2.1,6.4-5,9.3
		c-1.7,1.6-3.3,2.4-4.7,2.4c-1.4,0-2.2-0.7-2.2-2.1v-0.2c0-3.1,2.4-6.6,7.3-10.4c0.7-0.5,1.2-0.9,2.1-1.2c0,0,0-0.2,0.2-0.3
		c0.9-0.7,1.4-0.9,1.4-0.9c0.2,0,0.3,0.2,0.5,0.3c0.3,1.7,2.8,2.6,7.1,2.6c1.6,0,2.9-0.2,4.1-0.5C584.8,389.6,584.8,389.6,585,389.8
		C585,389.6,585,389.6,585,389.8z M571.7,391.3v-0.5c0-0.9-0.2-1.4-0.7-1.4c-0.2,0-0.5,0.2-0.9,0.5c-3.6,2.8-5.5,6-5.5,9.8
		c0,1,0.3,1.7,1,1.7c0.3,0,0.9-0.2,1.4-0.7C570.2,398.6,571.7,395.5,571.7,391.3z M572.4,385.1l0.2-0.2c1-0.7,2.4-1.9,4.5-3.3
		c0.7-0.5,1.4-0.9,1.9-1.2c0.2,0,0.2-0.2,0.3,0c0.2,0,0.2,0.2,0.2,0.3c0,0.3,0.2,0.7,0,0.9c-0.2,0.2-0.3,0.3-0.7,0.5
		c-1.6,1-3.6,2.2-6.2,3.6h-0.2C572.4,385.3,572.4,385.3,572.4,385.1z"/>
	<path d="M593,396.4c0,0.2,0,0.2-0.2,0.3c-4.5,4.1-8.1,6-10.9,6c-2.1,0-3.3-1-3.3-3.1c0-0.9,0.3-2.1,0.9-3.3
		c1.2-2.8,2.6-4.7,4.3-5.9c1.2-0.9,3.1-1.7,5.9-2.6c0.2,0,0.3-0.2,0.5-0.2c0.3,0,0.7,0.2,1,0.5c0.3,0.3,0.5,0.7,0.5,1
		c0,0.2,0,0.3-0.2,0.7c-0.3,0.9-0.7,1.2-1,1.2c-0.2,0-0.3-0.2-0.5-0.5c-0.5-1-1-1.6-1.9-1.6c-0.5,0-1,0.2-1.7,0.7
		c-1.7,1.2-3.3,3.5-4.7,6.7c-0.5,1.2-0.7,2.2-0.7,3.1c0,1.4,0.7,2.1,1.9,2.1c1,0,2.4-0.5,4-1.4c2.1-1.2,4-2.6,5.5-4.1
		C592.6,396.4,592.8,396.2,593,396.4C593,396.2,593,396.4,593,396.4z"/>
</g>
</svg>
