<?xml version="1.0" encoding="utf-8"?>
<!-- Generator: Adobe Illustrator 18.0.0, SVG Export Plug-In . SVG Version: 6.00 Build 0)  -->
<!DOCTYPE svg PUBLIC "-//W3C//DTD SVG 1.1//EN" "http://www.w3.org/Graphics/SVG/1.1/DTD/svg11.dtd">
<svg version="1.1" id="Layer_1" xmlns="http://www.w3.org/2000/svg" xmlns:xlink="http://www.w3.org/1999/xlink" x="0px" y="0px"
	 viewBox="0 369 329.5 38.2" enable-background="new 0 369 329.5 38.2" xml:space="preserve">
<g>
	<path fill="#FFFFFF" d="M34.6,377.7c0,0.1,0,0.1-0.1,0.2c-1,1.4-2.3,2.1-3.6,2.1c-1,0-2.2-0.5-3.2-1.3c-0.5-0.4-1.1-1-2.2-1.9
		c-1-0.9-2.1-1.3-3.2-1.3c-1.3,0-2.8,0.6-4.1,1.8c-1.1,1-2.1,2.3-2.8,3.6c-0.9,1.7-1.3,3.5-1.3,5.4c0,2.3,0.6,4.3,1.8,6
		c0.9-1,1.7-2.1,2.5-3.3c0.2-0.3,0.5-0.8,1-1.5c-0.5,0-1.1,0-1.9,0h-0.5c-0.2,0-0.3,0-0.3-0.1c0-0.3,0.3-0.5,0.8-0.8
		c0.3-0.1,1-0.2,2.5-0.2c1.5-2.8,3-5.5,4.2-8.2c0.1-0.2,0.3-0.4,0.5-0.5h0.1c0.1,0,0.1,0,0.1,0.1c0,0,0,0.1-0.1,0.3
		c-0.9,2.2-2.3,5-4.2,8.2l4.9-0.1c0.2,0,0.4,0,0.4,0.1c0,0.2-0.8,0.4-2.2,0.6c-1.3,0.2-2.6,0.4-3.7,0.4c-0.2,0.3-0.6,0.9-1,1.7
		c-0.8,1.1-1.6,2.3-2.8,3.5c1.5,1.9,3,3,4.7,3c0.3,0,0.6,0,0.8-0.1h0.1c0.1,0,0.1,0.1,0.1,0.2s-0.1,0.2-0.2,0.2
		c-0.4,0.1-0.9,0.1-1.5,0.2h-0.1c-1.8,0-3.3-0.9-4.5-2.5l-0.1,0.1c-2.6,2.6-5.3,3.8-8.3,3.8c-1.7,0-3.1-0.5-4.4-1.5
		c-0.9-0.7-1.2-1.7-1.2-3c0-0.7,0.1-1.3,0.3-2c0.6-1.7,1-2.5,1.2-2.5c0.1,0,0.1,0,0.1,0.1l-0.6,1.1c-0.4,0.8-0.6,1.3-0.6,1.8
		c0,0.8,0.3,1.6,0.9,2.3c1.2,1.6,3,2.5,5.5,2.5c2.5,0,4.8-1,6.9-3c-1-1.6-1.6-3.7-1.6-6.1s0.6-4.7,1.8-6.9c1.2-2.2,2.9-3.8,4.9-4.9
		c1-0.5,2-0.8,3-0.8c1.1,0,2.1,0.3,3,0.9c0.7,0.6,2,1.5,3.8,2.9c0.7,0.5,1.2,0.7,1.9,0.7c0.9,0,1.6-0.5,2.4-1.4
		c0-0.1,0.1-0.1,0.2-0.1C34.6,377.5,34.6,377.6,34.6,377.7z"/>
	<path fill="#FFFFFF" d="M36.7,386c0,0.1-0.5,0.5-1.3,1c-0.5,0.3-1,0.5-1.8,0.5c-0.1,0-0.8,0-2,0.1c-0.8,0-1.2,0.1-1.4,0.1
		c-0.6,0.1-1,0.3-1.2,0.7c-0.6,0.9-0.9,1.5-0.9,2l0,0c0,0.1,0.1,0.4,0.3,0.6c0.4,0.4,0.9,0.9,1.4,1.5c0.3,0.5,0.5,1,0.5,1.7v0.1
		c0,1-0.6,2.3-1.6,3.8c-1.6,2.2-3.4,3.3-5.4,3.3c-1.5,0-2.3-0.6-2.3-1.8c0-0.4,0-0.5,0.1-0.5l0,0c0,0,0.1,0.1,0.1,0.2
		c0.2,0.7,1,1,2.5,1h0.1c1.9,0,3.4-0.8,4.7-2.3c0.8-1,1.1-1.8,1.1-2.6l0,0c0-0.9-0.8-1.9-2.2-3c-0.3-0.2-0.4-0.6-0.4-1l0,0
		c0-0.3,0.1-0.7,0.3-1c1.5-2.5,2.5-3.7,2.9-3.9c0.1,0,0.2-0.1,0.3-0.1h0.2c0.3,0,0.8,0,1.3,0.1c0.6,0.1,1,0.1,1.3,0.1
		c1,0,1.8-0.1,2.3-0.2c0.1,0,0.3-0.1,0.6-0.3c0.3-0.2,0.5-0.2,0.5-0.2C36.7,385.9,36.7,385.9,36.7,386L36.7,386z"/>
	<path fill="#FFFFFF" d="M50.2,389.3c0,0.2-0.2,0.3-0.5,0.3H48h-1.5c-1.3,0-2.1,0-2.3,0s-0.4-0.1-0.4-0.2c0-0.2,0.2-0.4,0.5-0.4l0,0
		c-0.1,0,0.2,0,1,0H46c0.5,0,1,0,1.9,0s1.5,0,1.9,0C50.1,389.1,50.2,389.2,50.2,389.3z"/>
	<path fill="#FFFFFF" d="M87.7,377.6c0,0.8-0.2,1.6-0.6,2.7c-0.1,0.2-0.2,0.3-0.2,0.3c-0.1,0-0.1-0.1-0.1-0.2c0-0.1,0.1-0.4,0.3-0.8
		c0.2-0.5,0.3-0.8,0.3-1c0-0.8-0.7-1.2-2-1.2c-0.9,0-2.2,0.1-4.2,0.4c1,1.1,1.3,2.4,1.3,3.7c0,2.2-1.3,5-3.9,8.6
		c-1,1.4-2.2,2.7-3.3,3.7c-1.6,1.4-3,2.2-4.3,2.2c-1.5,0-2.2-1.2-2.2-3.8c0-0.3,0-1-0.1-1.9c0-1-0.1-1.7-0.1-2.4
		c0-1.2,0-3.3-0.1-6.5c-0.1-1.1-0.4-1.7-1-1.7c-0.4,0-1,0.4-1.6,1c-2.4,2.6-4.8,5.7-6.9,9.5c-1.4,2.5-2.7,4.8-3.5,6.9
		c-0.5,1.2-0.8,2.3-0.8,3.2v0.3c0,0.1,0,0.2-0.1,0.2c-0.2,0-0.4-0.6-0.6-1.7c0-0.1,0-0.2,0-0.3c0-0.4,0.1-0.8,0.3-1.2
		c1.2-2.9,3.3-6.6,6.5-10.9c2.7-3.8,4.9-6.5,6.5-8.2c0.7-0.7,1.1-1,1.6-1c0.7,0,1,0.9,1,2.5c0,0.7,0,1.7,0,3c0,1.3,0,2.4,0,3
		c0,1.5,0,2.7,0.1,3.5c0.1,1.5,0.2,2.6,0.4,3.2c0.4,1.4,1,2.1,2,2.1c0.6,0,1.1-0.2,1.7-0.7c1.4-1,2.8-2.7,4.1-4.7
		c2.2-3.5,3.3-6.6,3.3-9.2c0-1.1-0.3-2-0.8-2.7c-1.1,0.1-2.1,0.2-2.8,0.2c-1.2,0-2.2-0.2-3-0.7c-0.4-0.2-0.6-0.5-0.6-0.9
		c0-0.7,0.8-1,2.2-1c1.5,0,2.8,0.5,3.8,1.5l2.6-0.6c1-0.2,1.9-0.3,2.7-0.3C87,376.1,87.7,376.5,87.7,377.6z M80.1,377
		c-0.8-0.7-1.8-1-3-1c-1.2,0-1.9,0.2-1.8,0.7c0,0.5,0.6,0.7,1.7,0.7C77.7,377.4,78.7,377.3,80.1,377z"/>
	<path fill="#FFFFFF" d="M88.3,387.6c0.7,0.2,1.5,0.3,2.7,0.3c0.9,0,1.6-0.1,2.3-0.3c0,0,0,0,0.1,0c0,0,0.1,0,0.1,0.1
		c0,0.1,0,0.1-0.1,0.1c-1.3,0.4-2.3,0.5-3,0.5h-0.8c-0.9,0-1.6-0.1-2.3-0.3c-0.2,1.8-1.1,3.5-2.8,5.1c-1,0.9-1.8,1.3-2.7,1.3
		c-0.8,0-1.2-0.4-1.2-1.1v-0.1c0-1.7,1.3-3.6,4-5.7c0.4-0.3,0.7-0.5,1-0.7c0,0,0-0.1,0.1-0.2c0.5-0.4,0.8-0.5,0.8-0.5
		c0.1,0,0.2,0.1,0.3,0.2c0.1,0.4,0.4,0.8,0.9,1c0,0,0.1,0,0.1-0.1c0.3-0.2,0.6-0.4,0.8-0.7c0.2-0.3,0.2-0.5-0.1-0.7
		c-0.3-0.1-0.3-0.3-0.1-0.5c0.2-0.2,0.4-0.3,0.7-0.3s0.5,0.1,0.7,0.3c0.1,0.3,0.1,0.6-0.1,0.9C89.4,386.9,88.9,387.3,88.3,387.6z
		 M86.1,388.5v-0.3c0-0.5-0.1-0.8-0.4-0.8c-0.1,0-0.3,0.1-0.5,0.3c-2,1.5-3,3.3-3,5.4c0,0.6,0.2,1,0.6,1c0.2,0,0.5-0.1,0.8-0.4
		C85.2,392.5,86.1,390.8,86.1,388.5z"/>
	<path fill="#FFFFFF" d="M98.8,389.3c0,0,0,0.1-0.1,0.2c-2.1,2.5-4.3,4.3-6.5,5.3c-1,0.5-1.7,0.7-2.2,0.7c-0.7,0-1-0.3-1-1
		c0-0.5,0.3-1.2,0.8-2.2c0.4-0.7,1.5-2.6,3.3-5.6c0.3-0.5,0.5-0.7,0.7-0.7c0.2,0,0.4,0.3,0.5,0.8v0.1c0,0.1,0,0.3-0.1,0.4
		c-0.6,0.7-1,1.3-1.4,2c-1,1.6-1.6,2.9-1.9,3.9c-0.1,0.2-0.1,0.4-0.1,0.6c0,0.6,0.3,0.9,0.8,0.9c0.1,0,0.3,0,0.5-0.1
		C94.3,393.9,96.5,392.1,98.8,389.3l0.1-0.2C98.8,389.2,98.8,389.2,98.8,389.3z M96.8,382.8c0,0.3-0.1,0.6-0.4,0.9
		c-0.3,0.3-0.6,0.5-0.9,0.5c-0.3,0-0.5-0.2-0.5-0.5c0-0.3,0.1-0.7,0.4-1c0.3-0.3,0.6-0.5,0.9-0.5C96.7,382.3,96.8,382.5,96.8,382.8z
		"/>
	<path fill="#FFFFFF" d="M114.4,387.5c0,0.1-0.1,0.1-0.2,0.1c-2.4,0.2-4.7,0.3-6.9,0.4c-0.6,1.1-1,2.3-1.4,3.3
		c-0.2,0.7-0.4,1.1-0.4,1.5c0,0.6,0.3,0.9,1,0.9s1.6-0.2,2.7-0.7c1-0.5,1.5-0.7,1.3-0.7c0.1,0,0.2,0.1,0.2,0.1c0,0.1,0,0.1-0.1,0.2
		c-0.7,0.4-1.4,0.8-2.4,1c-1,0.4-1.9,0.6-2.6,0.6c-1,0-1.5-0.4-1.5-1.2c0-0.9,0.8-2.6,2.3-5h-2.1c-0.1,0-0.2,0-0.2-0.1
		c0-0.2,0.1-0.3,0.3-0.3c0.8,0,1.5,0,2.3,0c0.4-0.7,1.1-1.7,2.3-3.1c1.3-1.8,2.1-2.7,2.3-2.7c0.1,0,0.2,0,0.2,0.1
		c0,0-0.1,0.1-0.2,0.2c-1,1.4-2.3,3.2-3.7,5.5l6.7-0.2C114.4,387.5,114.4,387.5,114.4,387.5z"/>
	<path fill="#FFFFFF" d="M123,386.2c0,0.1,0,0.3-0.1,0.5l-0.5,1c0,0.1-0.1,0.1-0.1,0.1c-0.1,0-0.1,0-0.1-0.1l0,0c0-0.1,0-0.2,0-0.3
		c0-0.5-0.3-0.9-0.8-1c-0.3,0-0.5-0.1-0.7-0.1c-2.2,0-4.2,1.6-6.2,4.9c-0.1,0.2-0.8,1.2-1.8,3.1c-0.1,0.2-0.2,0.3-0.3,0.3
		c-0.2,0-0.4-0.3-0.6-0.8c0,0,0-0.1,0-0.2c0-0.2,0-0.3,0.1-0.5c0.8-1.4,1.7-3.1,2.9-5.3c0.3-0.6,0.6-0.9,1-0.9
		c0.2,0,0.3,0.1,0.3,0.2c0,0.1-0.4,1-1.1,2.5c1.4-1.7,3-3,4.7-4.1c0.8-0.5,1.4-0.7,2-0.7C122.5,385.1,123,385.4,123,386.2z"/>
	<path fill="#FFFFFF" d="M131.4,392.1c0,0.1,0,0.1-0.1,0.2c-1.3,1.7-2.8,3-4.2,3.8c-0.6,0.3-1,0.5-1.5,0.5c-0.6,0-1-0.2-1.3-0.5
		c-0.3-0.3-0.6-0.8-0.6-1.3c0-0.8,0.4-1.9,1.2-3.5c-1.8,2.2-3,3.3-3.9,3.3c-0.5,0-0.8-0.3-0.8-0.8c0-0.2,0-0.4,0.1-0.6
		c1-2.9,2.7-5,5-6.3c0.4-0.2,0.8-0.4,1.1-0.4c0.4,0,0.8,0.1,1.1,0.4c0.3-0.4,0.6-0.6,0.8-0.6c0.1,0,0.1,0,0.1,0.1c0,0,0,0.1-0.1,0.3
		c-0.8,1.1-1.4,2.4-2,3.8c-0.8,1.7-1.1,3-1.1,4.1c0,1,0.4,1.4,1.1,1.4c0.3,0,0.6-0.1,0.8-0.2c1.4-0.7,2.8-1.9,4-3.8
		C131.1,392.1,131.2,392,131.4,392.1C131.3,392,131.4,392,131.4,392.1z M126.5,387.7c-0.3-0.3-0.6-0.5-0.9-0.5
		c-0.4,0-0.8,0.2-1.1,0.7c-1.2,1.4-2.1,3-2.7,4.9c-0.1,0.2-0.1,0.4-0.1,0.7c0,0.2,0.1,0.3,0.2,0.3c0.1,0,0.2,0,0.4-0.1
		c0.8-0.6,1.6-1.5,2.7-3C125.6,389.7,126.2,388.7,126.5,387.7z M127.2,384.8c0,0-0.1-0.1-0.2-0.3v-0.1v-0.1c0.2-0.3,0.7-0.8,1.4-1.2
		c1-0.6,1.4-1,1.5-1c0.4-0.4,0.7-0.8,0.7-1.1c0-0.6-0.4-0.9-1-0.9c-0.3,0-0.7,0.1-1,0.3c-0.4,0.2-0.7,0.4-1,0.7c0,0-0.1,0.1-0.2,0.1
		h-0.2c0.2-0.5,0.2-0.7,0.2-0.7c0,0.1,0,0,0.2-0.1c0.5-0.4,1.1-0.6,1.8-0.6c1.1,0,1.7,0.4,1.7,1.2c0,0.7-0.6,1.4-1.6,2.2
		c-0.2,0.2-0.7,0.5-1.2,1c-0.4,0.3-0.6,0.7-0.6,1.1v0.3l-0.4-0.2C127.2,384.9,127.2,384.8,127.2,384.8z"/>
	<path fill="#FFFFFF" d="M140,389.3c0,0,0,0.1-0.1,0.2c-2.1,2.5-4.3,4.3-6.5,5.3c-1,0.5-1.7,0.7-2.2,0.7c-0.7,0-1-0.3-1-1
		c0-0.5,0.3-1.2,0.8-2.2c0.4-0.7,1.5-2.6,3.3-5.6c0.3-0.5,0.5-0.7,0.7-0.7c0.2,0,0.4,0.3,0.5,0.8v0.1c0,0.1,0,0.3-0.1,0.4
		c-0.6,0.7-1,1.3-1.4,2c-1,1.6-1.6,2.9-1.9,3.9c-0.1,0.2-0.1,0.4-0.1,0.6c0,0.6,0.3,0.9,0.8,0.9c0.1,0,0.3,0,0.5-0.1
		C135.4,393.9,137.7,392.1,140,389.3l0.1-0.2C139.9,389.2,140,389.2,140,389.3z M137.9,382.8c0,0.3-0.1,0.6-0.4,0.9
		c-0.3,0.3-0.6,0.5-0.9,0.5c-0.3,0-0.5-0.2-0.5-0.5c0-0.3,0.1-0.7,0.4-1c0.3-0.3,0.6-0.5,0.9-0.5
		C137.8,382.3,137.9,382.5,137.9,382.8z"/>
	<path fill="#FFFFFF" d="M155.7,393.4c0,0.3-0.5,0.8-1.4,1.2c-0.8,0.5-1.4,0.8-1.8,0.9c-0.6,0.2-1.1,0.3-1.7,0.3c-1.3,0-2-0.6-2-1.7
		c0-0.8,0.8-2.8,2.4-6c0-0.1,0.1-0.2,0.1-0.2c0-0.1-0.1-0.2-0.2-0.2c-0.1,0-0.1,0-0.2,0.1c-1.6,1-3.4,3.1-5.5,6.2
		c-0.4,0.5-0.8,0.8-1.2,0.8H144c-0.1,0-0.1-0.1-0.1-0.2c0-0.1,0-0.2,0.1-0.3c0.9-1.5,2-3.8,3.4-6.9c0.2-0.5,0.7-0.9,1.4-1h0.1
		c0.1,0,0.1,0.1,0.1,0.1c0,0.1,0,0.3-0.1,0.4c-0.7,1.2-1.3,2.7-2.1,4.4c1.1-1.4,2.5-2.8,4.1-4c0.6-0.5,1-0.8,1.3-0.8h0.1
		c0.4,0,0.6,0.2,0.6,0.6c0,0.1,0,0.2-0.1,0.3c-0.8,1.3-1.3,2.3-1.5,2.7c-0.7,1.4-1,2.7-1,3.6c0,1,0.5,1.6,1.5,1.6
		c1.3,0,2.6-0.7,3.7-2l0.1-0.1C155.7,393.3,155.7,393.3,155.7,393.4z"/>
	<path fill="#FFFFFF" d="M163.8,390.4c0,0.1,0,0.1-0.1,0.2c-0.7,1-2,2.1-3.8,3c-1.1,0.6-2.4,1-3.7,1.5c-2.6,4.6-4.8,7.6-6.7,9.2
		c-2.3,1.9-4.4,2.9-6.5,2.9c-1.1,0-2.2-0.3-3.1-0.9c-1-0.7-1.6-1.5-1.6-2.6c0-2.7,3.2-4.9,9.7-6.7c2.1-0.6,4.7-1.3,7.7-2.2
		c0.1-0.2,0.3-0.5,0.5-1c0.7-1.3,1.2-2.5,1.7-3.5c-1.7,2.2-3.2,3.2-4.5,3.2c-0.6,0-1-0.3-1-1c0-0.2,0.1-0.5,0.2-0.8c0.5-1,1.1-2,2-3
		c1-1,1.8-1.8,2.9-2.2c0.6-0.3,1.1-0.4,1.6-0.4c0.3,0,0.6,0,0.7,0.1c0.1-0.2,0.3-0.5,0.6-1c0.4-0.6,0.7-1,0.9-1
		c0.2,0,0.3,0.1,0.3,0.3v0.2c0,0.4-0.2,1-0.7,1.8c-0.8,1.3-2.2,3.8-4.3,7.2l-0.3,0.4c1-0.4,2.2-0.8,3.3-1.4c1.8-0.9,3-1.8,3.7-2.9
		c0.1-0.1,0.1-0.1,0.2-0.1C163.7,390.3,163.8,390.3,163.8,390.4z M155.4,395.4l-8.3,2.8c-3.7,1.4-6.1,2.8-7.1,4.2
		c-0.7,0.8-1,1.5-1,2.1c0,0.8,0.4,1.3,1.1,1.7c0.6,0.3,1.3,0.4,2.2,0.4c2.6,0,5.1-1.3,7.8-3.9C152,400.7,153.8,398.2,155.4,395.4z
		 M159.6,387.1c-0.2-0.1-0.5-0.1-0.9-0.1c-0.6,0-1,0.1-1.3,0.4c-0.7,0.5-1.4,1.3-2.2,2.6c-0.9,1.3-1.3,2.3-1.3,3
		c0,0.2,0.1,0.3,0.3,0.3h0.1c0.3,0,0.7-0.2,1.2-0.7C156.6,391.5,158,389.8,159.6,387.1z"/>
	<path fill="#FFFFFF" d="M166.8,391.4c0.5-1,0.9-2.1,1.1-3.1c0-0.1,0.1-0.3,0.1-0.4c0-0.2-0.1-0.3-0.2-0.3c-0.1,0-0.3,0.1-0.5,0.2
		c-1.1,0.8-2,1.5-2.6,2.3c-0.5,0.7-1.1,1.7-2,3.3c-0.2,0.3-0.4,0.5-0.6,0.7c-0.2,0.1-0.4,0.3-0.6,0.4c-0.2,0.2-0.4,0.2-0.5,0.2
		c-0.1,0-0.1,0-0.1-0.1c0-0.1,0-0.1,0-0.2c2.2-4.3,5-8.8,8.2-13.4c1.4-2,3-3.9,4.8-5.8c2.1-2.2,4-3.8,5.7-4.8
		c0.9-0.5,1.7-0.8,2.5-0.8c1.3,0,2.1,0.4,2.5,1.2c0.1,0.5,0.2,0.9,0.3,1.3l0,0c0,0.1,0,0.1-0.1,0.1c-0.1,0-0.1-0.1-0.1-0.1
		c-0.4-1-1.3-1.4-2.9-1.4c-2.3,0-4.7,1.4-7.2,4.2c-1.2,1.3-3,3.6-5,6.9c-1.9,3-3.2,5.2-4.2,6.9c2.1-1.7,3.3-2.6,3.7-2.6
		c0.3,0,0.4,0.2,0.4,0.7c0,0.3-0.1,0.8-0.3,1.2c-0.3,0.7-0.6,1.4-0.9,2.2c-0.5,1.1-0.8,2.2-0.8,3c0,1,0.5,1.6,1.5,1.6
		c1.3,0,2.6-0.7,3.6-2c0.1,0,0.1-0.1,0.1-0.1c0.1,0,0.1,0,0.1,0.1c0,0.3-0.5,0.8-1.4,1.2c-0.8,0.5-1.4,0.8-1.8,0.9
		c-0.6,0.2-1.1,0.3-1.7,0.3c-1.3,0-2-0.6-2-1.7C166,393.7,166.2,392.7,166.8,391.4z"/>
	<path fill="#FFFFFF" d="M181.1,389.3c0,0,0,0.1-0.1,0.2c-2.1,2.5-4.3,4.3-6.5,5.3c-1,0.5-1.7,0.7-2.2,0.7c-0.7,0-1-0.3-1-1
		c0-0.5,0.3-1.2,0.8-2.2c0.4-0.7,1.5-2.6,3.3-5.6c0.3-0.5,0.5-0.7,0.7-0.7c0.2,0,0.4,0.3,0.5,0.8v0.1c0,0.1,0,0.3-0.1,0.4
		c-0.6,0.7-1,1.3-1.4,2c-1,1.6-1.6,2.9-1.9,3.9c-0.1,0.2-0.1,0.4-0.1,0.6c0,0.6,0.3,0.9,0.8,0.9c0.1,0,0.3,0,0.5-0.1
		C176.5,393.9,178.8,392.1,181.1,389.3l0.1-0.2C181.1,389.2,181.1,389.2,181.1,389.3z M179.1,382.8c0,0.3-0.1,0.6-0.4,0.9
		c-0.3,0.3-0.6,0.5-0.9,0.5s-0.5-0.2-0.5-0.5c0-0.3,0.1-0.7,0.4-1c0.3-0.3,0.6-0.5,0.9-0.5C178.9,382.3,179.1,382.5,179.1,382.8z"/>
	<path fill="#FFFFFF" d="M188.4,390.7c0,0,0,0.1-0.1,0.2c-1.9,1.8-4,3-6.3,3.6c-0.6,0.2-1.2,0.3-1.8,0.3h-0.1
		c-1.2,0-1.9-0.5-1.9-1.5c0-0.6,0.2-1.3,0.7-2.2c1-1.9,2.6-3.3,4.4-4.2c0.8-0.3,1.3-0.5,1.8-0.5l0,0c0.6,0,0.8,0.2,0.8,0.7
		c0,1.4-2,2.8-5.9,4.2c-0.3,0.7-0.5,1.2-0.5,1.6v0.1c0,0.9,0.6,1.2,1.6,1.2h0.1c0.4,0,0.8,0,1.1-0.1c2.1-0.6,4-1.7,5.7-3.4l0.1-0.1
		C188.4,390.6,188.4,390.6,188.4,390.7z M179.5,396.7c-0.5,0.1-0.8,0.4-1,1c0,0.1,0,0.2,0,0.4c0,0.1,0.1,0.3,0.3,0.4
		c0.2,0.2,0.5,0.2,0.8,0c0.3-0.2,0.5-0.5,0.5-0.8c0.1-0.3,0-0.5,0-0.8C180,396.6,179.8,396.6,179.5,396.7z M184.7,387.9v-0.2
		c0-0.5-0.2-0.7-0.6-0.7c-0.2,0-0.5,0.1-0.8,0.3c-1.2,0.9-2.3,2.1-3,3.6C183.1,390.1,184.5,389,184.7,387.9z M187.2,385.6l-0.5,0.3
		c-0.1,0-0.1-0.1-0.1-0.2l-0.1-1.8c0-0.1,0-0.1-0.1-0.1c0,0-0.1,0-0.2,0.1c-0.6,0.4-1,0.7-1.2,0.8c-1,0.7-1.4,1-1.5,1
		c-0.1,0-0.1,0-0.1-0.1c0-0.1,0.1-0.2,0.2-0.3c0.5-0.4,0.9-0.7,1-0.8c1.1-0.8,1.8-1.1,2.1-1.3c0,0,0.1,0,0.3,0c0.1,0,0.1,0,0.1,0.1
		c0,0.2,0,0.6,0.1,1c0.1,0.5,0.1,0.8,0.1,1C187.3,385.4,187.3,385.5,187.2,385.6z"/>
	<path fill="#FFFFFF" d="M202.5,389.5c0,0,0,0.1-0.1,0.2c-1.2,2.1-3,3.7-5.5,5c-0.9,0.5-1.6,0.7-2.3,0.7c-0.7,0-1-0.3-1-1
		c0-0.4,0.1-0.8,0.4-1.2c0.8-1.3,1.4-2.6,2-3.7c0.2-0.3,0.2-0.6,0.2-0.8c0-0.2-0.1-0.4-0.3-0.4c-0.2,0-0.4,0.1-0.6,0.2
		c-0.9,0.6-1.7,1.5-2.7,2.8c-1,1.3-1.5,2-1.9,2h-0.1c-0.3,0-0.4-0.2-0.4-0.4c0-0.1,0.1-0.3,0.2-0.4c1-1.3,1.8-2.7,2.4-4
		c0-0.1,0.1-0.2,0.1-0.4c0-0.1-0.1-0.2-0.2-0.2c-0.1,0-0.2,0-0.4,0.1c-1.3,0.9-2.6,2-3.6,3.6c-0.2,0.5-0.6,1.1-1.1,2
		c-0.1,0.1-0.2,0.2-0.3,0.2c-0.2,0-0.4-0.2-0.4-0.7c0-0.1,0-0.2,0.1-0.4c0.2-0.6,0.7-1.6,1.5-3.1c1.3-2.6,2.2-3.8,2.6-3.8
		c0.1,0,0.3,0.2,0.5,0.5v0.1c0,0.1,0,0.2-0.1,0.3c-0.2,0.3-0.9,1.3-1.9,3.2c0,0,0,0,0.1-0.1c1-1.2,2.4-2.2,3.9-3
		c0.2-0.1,0.4-0.2,0.6-0.2c0.2,0,0.3,0.1,0.3,0.4c0,0.3-0.2,0.7-0.6,1.3c-0.4,0.7-0.6,1-0.6,1s0.1,0,0.1-0.1c1-1,2-1.6,3-2.1
		c0.2-0.1,0.3-0.1,0.4-0.1c0.3,0,0.5,0.1,0.6,0.4v0.1c0,0.2-0.1,0.6-0.3,1c-1,1.8-1.6,3.1-2.1,4.2c-0.1,0.3-0.2,0.6-0.2,0.8
		c0,0.5,0.2,0.7,0.7,0.7c0.3,0,0.6-0.1,0.9-0.2c2.4-1.1,4.2-2.8,5.4-5c0.1-0.1,0.1-0.1,0.2-0.1C202,388.9,202.5,389.4,202.5,389.5z"
		/>
	<path fill="#FFFFFF" d="M218.1,393.4c0,0.3-0.5,0.8-1.4,1.2c-0.8,0.5-1.4,0.8-1.8,0.9c-0.6,0.2-1.1,0.3-1.7,0.3c-1.3,0-2-0.6-2-1.7
		c0-0.8,0.8-2.8,2.4-6c0-0.1,0.1-0.2,0.1-0.2c0-0.1-0.1-0.2-0.2-0.2c-0.1,0-0.1,0-0.2,0.1c-1.6,1-3.4,3.1-5.5,6.2
		c-0.4,0.5-0.8,0.8-1.2,0.8h-0.1c-0.1,0-0.1-0.1-0.1-0.2c0-0.1,0-0.2,0.1-0.3c0.9-1.5,2-3.8,3.4-6.9c0.2-0.5,0.7-0.9,1.4-1h0.1
		c0.1,0,0.1,0.1,0.1,0.1c0,0.1,0,0.3-0.1,0.4c-0.7,1.2-1.3,2.7-2.1,4.4c1.1-1.4,2.5-2.8,4.1-4c0.6-0.5,1-0.8,1.3-0.8h0.1
		c0.4,0,0.6,0.2,0.6,0.6c0,0.1,0,0.2-0.1,0.3c-0.8,1.3-1.3,2.3-1.5,2.7c-0.7,1.4-1,2.7-1,3.6c0,1,0.5,1.6,1.5,1.6
		c1.3,0,2.6-0.7,3.7-2l0.1-0.1C218.1,393.3,218.1,393.3,218.1,393.4z"/>
	<path fill="#FFFFFF" d="M226.2,390.4c0,0.1,0,0.1-0.1,0.2c-0.7,1-2,2.1-3.8,3c-1.1,0.6-2.4,1-3.7,1.5c-2.6,4.6-4.8,7.6-6.7,9.2
		c-2.3,1.9-4.4,2.9-6.5,2.9c-1.1,0-2.2-0.3-3.1-0.9c-1-0.7-1.6-1.5-1.6-2.6c0-2.7,3.2-4.9,9.7-6.7c2.1-0.6,4.7-1.3,7.7-2.2
		c0.1-0.2,0.3-0.5,0.5-1c0.7-1.3,1.2-2.5,1.7-3.5c-1.7,2.2-3.2,3.2-4.5,3.2c-0.6,0-1-0.3-1-1c0-0.2,0.1-0.5,0.2-0.8c0.5-1,1-2,2-3
		c1-1,1.8-1.8,2.9-2.2c0.6-0.3,1.1-0.4,1.6-0.4c0.3,0,0.6,0,0.7,0.1c0.1-0.2,0.3-0.5,0.6-1c0.4-0.6,0.7-1,0.9-1
		c0.2,0,0.3,0.1,0.3,0.3v0.2c0,0.4-0.2,1-0.7,1.8c-0.8,1.3-2.2,3.8-4.3,7.2l-0.3,0.4c1-0.4,2.2-0.8,3.3-1.4c1.8-0.9,3-1.8,3.7-2.9
		c0.1-0.1,0.1-0.1,0.2-0.1C226.2,390.3,226.2,390.3,226.2,390.4z M217.8,395.4l-8.4,2.8c-3.7,1.4-6.1,2.8-7.1,4.2
		c-0.7,0.8-1,1.5-1,2.1c0,0.8,0.4,1.3,1.1,1.7c0.6,0.3,1.3,0.4,2.2,0.4c2.6,0,5.1-1.3,7.8-3.9C214.5,400.7,216.2,398.2,217.8,395.4z
		 M222,387.1c-0.2-0.1-0.5-0.1-0.9-0.1c-0.6,0-1,0.1-1.3,0.4c-0.7,0.5-1.4,1.3-2.2,2.6c-0.9,1.3-1.3,2.3-1.3,3
		c0,0.2,0.1,0.3,0.3,0.3h0.1c0.3,0,0.7-0.2,1.2-0.7C219.1,391.5,220.5,389.8,222,387.1z"/>
	<path fill="#FFFFFF" d="M229.3,391.4c0.5-1,0.9-2.1,1.1-3.1c0-0.1,0.1-0.3,0.1-0.4c0-0.2-0.1-0.3-0.2-0.3s-0.3,0.1-0.5,0.2
		c-1.1,0.8-2,1.5-2.6,2.3c-0.5,0.7-1.1,1.7-2,3.3c-0.2,0.3-0.4,0.5-0.6,0.7c-0.2,0.1-0.4,0.3-0.5,0.4c-0.2,0.2-0.4,0.2-0.5,0.2
		c-0.1,0-0.1,0-0.1-0.1c0-0.1,0-0.1,0-0.2c2.2-4.3,5-8.8,8.2-13.4c1.4-2,3-3.9,4.8-5.8c2.1-2.2,4-3.8,5.7-4.8
		c0.9-0.5,1.7-0.8,2.5-0.8c1.3,0,2.1,0.4,2.5,1.2c0.1,0.5,0.2,0.9,0.3,1.3l0,0c0,0.1,0,0.1-0.1,0.1c-0.1,0-0.1-0.1-0.1-0.1
		c-0.4-1-1.3-1.4-2.9-1.4c-2.3,0-4.7,1.4-7.2,4.2c-1.2,1.3-3,3.6-5,6.9c-1.9,3-3.2,5.2-4.2,6.9c2.1-1.7,3.3-2.6,3.7-2.6
		c0.3,0,0.4,0.2,0.4,0.7c0,0.3-0.1,0.8-0.3,1.2c-0.3,0.7-0.6,1.4-0.9,2.2c-0.5,1.1-0.8,2.2-0.8,3c0,1,0.5,1.6,1.5,1.6
		c1.3,0,2.6-0.7,3.6-2c0.1,0,0.1-0.1,0.1-0.1c0.1,0,0.1,0,0.1,0.1c0,0.3-0.5,0.8-1.4,1.2c-0.8,0.5-1.4,0.8-1.8,0.9
		c-0.6,0.2-1.2,0.3-1.7,0.3c-1.3,0-2-0.6-2-1.7C228.4,393.7,228.7,392.7,229.3,391.4z"/>
	<path fill="#FFFFFF" d="M244.1,390.7c0,0,0,0.1-0.1,0.2c-1.9,1.8-4,3-6.3,3.6c-0.6,0.2-1.2,0.3-1.8,0.3h-0.1
		c-1.2,0-1.9-0.5-1.9-1.5c0-0.6,0.2-1.3,0.7-2.2c1-1.9,2.6-3.3,4.4-4.2c0.8-0.3,1.3-0.5,1.8-0.5l0,0c0.6,0,0.8,0.2,0.8,0.7
		c0,1.4-2,2.8-5.9,4.2c-0.3,0.7-0.5,1.2-0.5,1.6v0.1c0,0.9,0.6,1.2,1.6,1.2h0.1c0.4,0,0.8,0,1.1-0.1c2.1-0.6,4-1.7,5.7-3.4l0.1-0.1
		C244.1,390.6,244.1,390.6,244.1,390.7z M235.2,396.7c-0.5,0.1-0.8,0.4-1,1c0,0.1,0,0.2,0,0.4c0,0.1,0.1,0.3,0.3,0.4
		c0.2,0.2,0.5,0.2,0.8,0c0.3-0.2,0.5-0.5,0.5-0.8c0.1-0.3,0-0.5,0-0.8C235.6,396.7,235.5,396.6,235.2,396.7z M240.3,387.9v-0.2
		c0-0.5-0.2-0.7-0.6-0.7c-0.2,0-0.5,0.1-0.8,0.3c-1.2,0.9-2.3,2.1-3,3.6C238.8,390.1,240.2,389,240.3,387.9z M242.9,385.6l-0.5,0.3
		c-0.1,0-0.1-0.1-0.1-0.2l-0.1-1.8c0-0.1,0-0.1-0.1-0.1c0,0-0.1,0-0.2,0.1c-0.6,0.4-1,0.7-1.2,0.8c-1,0.7-1.4,1-1.5,1
		c-0.1,0-0.1,0-0.1-0.1c0-0.1,0.1-0.2,0.2-0.3c0.5-0.4,0.9-0.7,1-0.8c1.1-0.8,1.8-1.1,2.1-1.3c0,0,0.1,0,0.3,0c0.1,0,0.1,0,0.1,0.1
		c0,0.2,0,0.6,0.1,1c0.1,0.5,0.1,0.8,0.1,1C243,385.4,243,385.5,242.9,385.6z"/>
	<path fill="#FFFFFF" d="M260.8,387.5c0,0.1-0.1,0.1-0.2,0.1c-2.4,0.2-4.7,0.3-6.9,0.4c-0.6,1.1-1,2.3-1.4,3.3
		c-0.2,0.7-0.4,1.1-0.4,1.5c0,0.6,0.3,0.9,1,0.9c0.7,0,1.6-0.2,2.7-0.7c1-0.5,1.5-0.7,1.3-0.7c0.1,0,0.2,0.1,0.2,0.1
		c0,0.1,0,0.1-0.1,0.2c-0.7,0.4-1.4,0.8-2.4,1c-1,0.4-1.9,0.6-2.6,0.6c-1,0-1.5-0.4-1.5-1.2c0-0.9,0.8-2.6,2.3-5h-2.1
		c-0.1,0-0.2,0-0.2-0.1c0-0.2,0.1-0.3,0.3-0.3c0.8,0,1.5,0,2.3,0c0.4-0.7,1.1-1.7,2.3-3.1c1.3-1.8,2.1-2.7,2.3-2.7
		c0.1,0,0.2,0,0.2,0.1c0,0-0.1,0.1-0.2,0.2c-1,1.4-2.3,3.2-3.7,5.5l6.7-0.2C260.7,387.5,260.8,387.5,260.8,387.5z"/>
	<path fill="#FFFFFF" d="M261.8,391.4c0.5-1,0.9-2.1,1.1-3.1c0-0.1,0.1-0.3,0.1-0.4c0-0.2-0.1-0.3-0.2-0.3s-0.3,0.1-0.5,0.2
		c-1.1,0.8-2,1.5-2.6,2.3c-0.5,0.7-1.1,1.7-2,3.3c-0.2,0.3-0.4,0.5-0.6,0.7c-0.2,0.1-0.4,0.3-0.5,0.4c-0.2,0.2-0.4,0.2-0.5,0.2
		c-0.1,0-0.1,0-0.1-0.1c0-0.1,0-0.1,0-0.2c2.2-4.3,5-8.8,8.2-13.4c1.4-2,3-3.9,4.8-5.8c2.1-2.2,4-3.8,5.7-4.8
		c0.9-0.5,1.7-0.8,2.5-0.8c1.3,0,2.1,0.4,2.5,1.2c0.1,0.5,0.2,0.9,0.3,1.3l0,0c0,0.1,0,0.1-0.1,0.1s-0.1-0.1-0.1-0.1
		c-0.4-1-1.3-1.4-2.9-1.4c-2.3,0-4.7,1.4-7.2,4.2c-1.2,1.3-3,3.6-5,6.9c-1.9,3-3.2,5.2-4.2,6.9c2.1-1.7,3.3-2.6,3.7-2.6
		c0.3,0,0.4,0.2,0.4,0.7c0,0.3-0.1,0.8-0.3,1.2c-0.3,0.7-0.6,1.4-0.9,2.2c-0.5,1.1-0.8,2.2-0.8,3c0,1,0.5,1.6,1.5,1.6
		c1.3,0,2.6-0.7,3.6-2c0.1,0,0.1-0.1,0.1-0.1c0.1,0,0.1,0,0.1,0.1c0,0.3-0.5,0.8-1.4,1.2c-0.8,0.5-1.4,0.8-1.8,0.9
		c-0.6,0.2-1.2,0.3-1.7,0.3c-1.3,0-2-0.6-2-1.7C261.1,393.7,261.3,392.7,261.8,391.4z"/>
	<path fill="#FFFFFF" d="M278.7,390.6C278.7,390.6,278.7,390.7,278.7,390.6c-2.2,2.6-4,3.9-5.7,3.9c-1.1,0-1.7-0.6-1.7-1.7
		c0-0.4,0.1-0.7,0.2-1c-0.7,0.8-1.1,1.2-1.5,1.6c-0.8,0.7-1.3,1-1.8,1c-0.4,0-0.6-0.2-0.6-0.7c0-0.3,0.1-0.6,0.3-1
		c0.7-1.6,1.5-3.2,2.6-5c0.1-0.1,0.3-0.4,0.6-0.9c0.2-0.3,0.6-0.5,1.2-0.6c0.2,0.1,0.3,0.1,0.3,0.2c0,0.2-0.1,0.5-0.4,0.8
		c-0.4,0.4-0.7,0.7-0.7,0.8c-0.9,1.4-1.5,2.8-2,4c-0.2,0.5-0.3,0.8-0.3,1c0,0.2,0.1,0.4,0.2,0.4c0.4,0,1-0.6,1.9-1.8
		c0.7-1,1.7-2.7,3.1-4.8c0.1-0.2,0.3-0.3,0.5-0.3c0.3,0,0.4,0.2,0.4,0.7c0,0.2-0.1,0.4-0.2,0.7c-1.6,2.4-2.5,4.1-2.5,5.2
		c0,0.7,0.4,1,1,1c0.2,0,0.5-0.1,1-0.2C275.9,393.6,277.2,392.4,278.7,390.6C278.7,390.5,278.8,390.5,278.7,390.6
		C278.8,390.5,278.7,390.5,278.7,390.6z"/>
	<path fill="#FFFFFF" d="M287.2,392.1c0,0.1,0,0.1-0.1,0.2c-1.3,1.7-2.8,3-4.2,3.8c-0.6,0.3-1,0.5-1.5,0.5c-0.6,0-1-0.2-1.3-0.5
		c-0.4-0.4-0.6-0.8-0.6-1.3c0-0.8,0.4-1.9,1.2-3.5c-1.8,2.2-3,3.3-3.9,3.3c-0.5,0-0.8-0.3-0.8-0.8c0-0.2,0-0.4,0.1-0.6
		c1-2.9,2.7-5,5-6.3c0.4-0.2,0.8-0.4,1.1-0.4c0.4,0,0.8,0.1,1.1,0.4c0.3-0.4,0.6-0.6,0.8-0.6c0.1,0,0.1,0,0.1,0.1c0,0,0,0.1-0.1,0.3
		c-0.8,1.1-1.4,2.4-2,3.8c-0.8,1.7-1.1,3-1.1,4.1c0,1,0.4,1.4,1.1,1.4c0.3,0,0.6-0.1,0.8-0.2c1.4-0.7,2.8-1.9,4-3.8
		C287,392.1,287.1,392,287.2,392.1C287.2,392,287.2,392,287.2,392.1z M277.4,396.7c-0.5,0.1-0.8,0.4-1,1c0,0.1,0,0.2,0,0.4
		c0,0.1,0.1,0.3,0.3,0.4c0.2,0.2,0.5,0.2,0.8,0c0.3-0.2,0.5-0.5,0.5-0.8c0.1-0.3,0-0.5,0-0.8C277.9,396.7,277.7,396.6,277.4,396.7z
		 M282.5,387.7c-0.3-0.3-0.6-0.5-0.9-0.5c-0.4,0-0.8,0.2-1.1,0.7c-1.2,1.4-2.1,3-2.7,4.9c-0.1,0.2-0.1,0.4-0.1,0.7
		c0,0.2,0.1,0.3,0.2,0.3c0.1,0,0.2,0,0.4-0.1c0.8-0.6,1.6-1.5,2.7-3C281.4,389.7,282,388.7,282.5,387.7z M285.1,385.6l-0.5,0.3
		c-0.1,0-0.1-0.1-0.1-0.2l-0.1-1.8c0-0.1,0-0.1-0.1-0.1c0,0-0.1,0-0.2,0.1c-0.6,0.4-1,0.7-1.2,0.8c-1,0.7-1.4,1-1.5,1
		c-0.1,0-0.1,0-0.1-0.1c0-0.1,0.1-0.2,0.2-0.3c0.5-0.4,0.9-0.7,1-0.8c1.1-0.8,1.8-1.1,2.1-1.3c0,0,0.1,0,0.3,0c0.1,0,0.1,0,0.1,0.1
		c0,0.2,0,0.6,0.1,1c0.1,0.5,0.1,0.8,0.1,1C285.3,385.4,285.2,385.5,285.1,385.6z"/>
	<path fill="#FFFFFF" d="M297.3,387.5c0,0.1-0.1,0.1-0.2,0.1c-2.4,0.2-4.7,0.3-6.9,0.4c-0.6,1.1-1,2.3-1.4,3.3
		c-0.2,0.7-0.4,1.1-0.4,1.5c0,0.6,0.3,0.9,1,0.9s1.6-0.2,2.7-0.7c1-0.5,1.5-0.7,1.3-0.7c0.1,0,0.2,0.1,0.2,0.1c0,0.1,0,0.1-0.1,0.2
		c-0.7,0.4-1.4,0.8-2.4,1c-1,0.4-1.9,0.6-2.6,0.6c-1,0-1.5-0.4-1.5-1.2c0-0.9,0.8-2.6,2.3-5h-2.1c-0.1,0-0.2,0-0.2-0.1
		c0-0.2,0.1-0.3,0.3-0.3c0.8,0,1.5,0,2.3,0c0.4-0.7,1.1-1.7,2.3-3.1c1.3-1.8,2.1-2.7,2.3-2.7c0.1,0,0.2,0,0.2,0.1
		c0,0-0.1,0.1-0.2,0.2c-1,1.4-2.3,3.2-3.7,5.5l6.7-0.2C297.2,387.5,297.3,387.5,297.3,387.5z"/>
	<path fill="#FFFFFF" d="M312.9,387.5c0,0.1-0.1,0.1-0.2,0.1c-2.4,0.2-4.7,0.3-6.9,0.4c-0.6,1.1-1,2.3-1.4,3.3
		c-0.2,0.7-0.4,1.1-0.4,1.5c0,0.6,0.3,0.9,1,0.9s1.6-0.2,2.7-0.7c1-0.5,1.5-0.7,1.3-0.7c0.1,0,0.2,0.1,0.2,0.1c0,0.1,0,0.1-0.1,0.2
		c-0.7,0.4-1.4,0.8-2.4,1c-1,0.4-1.9,0.6-2.6,0.6c-1,0-1.5-0.4-1.5-1.2c0-0.9,0.8-2.6,2.3-5h-2.1c-0.1,0-0.2,0-0.2-0.1
		c0-0.2,0.1-0.3,0.3-0.3c0.8,0,1.5,0,2.3,0c0.4-0.7,1.1-1.7,2.3-3.1c1.3-1.8,2.1-2.7,2.3-2.7c0.1,0,0.2,0,0.2,0.1
		c0,0-0.1,0.1-0.2,0.2c-1,1.4-2.3,3.2-3.7,5.5l6.7-0.2C312.8,387.5,312.9,387.5,312.9,387.5z"/>
	<path fill="#FFFFFF" d="M322.8,387.7c0,0.1-0.1,0.1-0.2,0.1c-1.3,0.4-2.3,0.5-2.9,0.5h-0.8c-0.9,0-1.6-0.1-2.3-0.3
		c-0.2,1.8-1.1,3.5-2.8,5.1c-1,0.9-1.8,1.3-2.6,1.3c-0.8,0-1.2-0.4-1.2-1.1v-0.1c0-1.7,1.3-3.6,4-5.7c0.4-0.3,0.7-0.5,1.1-0.7
		c0,0,0-0.1,0.1-0.2c0.5-0.4,0.8-0.5,0.8-0.5c0.1,0,0.2,0.1,0.3,0.2c0.2,1,1.5,1.4,3.9,1.4c0.9,0,1.6-0.1,2.3-0.3
		C322.7,387.6,322.7,387.6,322.8,387.7C322.8,387.6,322.8,387.6,322.8,387.7z M315.4,388.5v-0.3c0-0.5-0.1-0.8-0.4-0.8
		c-0.1,0-0.3,0.1-0.5,0.3c-2,1.5-3,3.3-3,5.4c0,0.6,0.2,1,0.6,1c0.2,0,0.5-0.1,0.8-0.4C314.6,392.5,315.4,390.8,315.4,388.5z
		 M315.8,385.1L315.8,385.1c0.7-0.5,1.4-1.1,2.6-1.9c0.4-0.3,0.8-0.5,1-0.7c0.1,0,0.1-0.1,0.2,0c0.1,0,0.1,0.1,0.1,0.2
		c0,0.2,0.1,0.4,0,0.5c-0.1,0.1-0.2,0.2-0.4,0.3c-0.9,0.6-2,1.2-3.4,2h-0.1C315.8,385.2,315.8,385.2,315.8,385.1z"/>
	<path fill="#FFFFFF" d="M327.1,391.3c0,0.1,0,0.1-0.1,0.2c-2.5,2.3-4.5,3.3-6,3.3c-1.1,0-1.8-0.6-1.8-1.7c0-0.5,0.2-1.1,0.5-1.8
		c0.7-1.5,1.4-2.6,2.4-3.2c0.7-0.5,1.7-1,3.2-1.4c0.1,0,0.2-0.1,0.3-0.1c0.2,0,0.4,0.1,0.6,0.3c0.2,0.2,0.3,0.4,0.3,0.6
		c0,0.1,0,0.2-0.1,0.4c-0.2,0.5-0.4,0.7-0.6,0.7c-0.1,0-0.2-0.1-0.3-0.3c-0.3-0.6-0.6-0.9-1-0.9c-0.3,0-0.6,0.1-1,0.4
		c-1,0.7-1.8,1.9-2.6,3.7c-0.3,0.7-0.4,1.2-0.4,1.7c0,0.8,0.4,1.1,1,1.1c0.6,0,1.3-0.3,2.2-0.8c1.1-0.7,2.2-1.4,3-2.3
		C326.9,391.3,327,391.2,327.1,391.3C327.1,391.2,327.1,391.3,327.1,391.3z"/>
</g>
</svg>
