<?xml version="1.0" encoding="utf-8"?>
<!-- Generator: Adobe Illustrator 18.0.0, SVG Export Plug-In . SVG Version: 6.00 Build 0)  -->
<!DOCTYPE svg PUBLIC "-//W3C//DTD SVG 1.1//EN" "http://www.w3.org/Graphics/SVG/1.1/DTD/svg11.dtd">
<svg version="1.1" id="Capa_1" xmlns="http://www.w3.org/2000/svg" xmlns:xlink="http://www.w3.org/1999/xlink" x="0px" y="0px"
	 viewBox="0 0 583.2 583.2" enable-background="new 0 0 583.2 583.2" xml:space="preserve">
<circle fill="#EEEEEE" cx="292.4" cy="292.4" r="290.7"/>
<g display="none">
	<path display="inline" fill="#882D1E" d="M432.4,345.4c-1.9-6.1-5.1-11.8-9.6-16.6c-12.4-12.9-31.2-16.3-46.3-8.9
		c-0.1,0-0.2,0-0.3,0c-17,7.7-43.7-8.4-57.3-12.9c-7.5-2.4-14.3-7.7-20.8-12.3c10.3,0.7,21.2,6.2,26.3,8.9c1,0.5,1.8,0,1.3-0.6
		c-4.6-5.4-8.5-10.5-10.8-15.2l13.1,11.9l1.8-2l-16.8-15.3c-0.3-1.3-0.4-2.6-0.4-3.9l18.9,17.2l1.8-2l-20.3-18.4
		c0.2-0.8,0.5-1.7,0.9-2.5l21,19.1l1.8-2l-21.4-19.4c0.5-0.7,1-1.4,1.7-2.1l21.5,19.5l1.8-2l-21.5-19.5c0.5-0.6,1.1-1.2,1.8-2
		L342,284l1.8-2l-21.5-19.5c0.5-0.6,1.1-1.2,1.7-1.8l21.5,19.5l1.8-2l-21.5-19.5c0.5-0.5,1-1.1,1.5-1.6l21.5,19.5l1.8-2L329,255.1
		c0.6-0.7,1.2-1.3,1.8-2l21.5,19.5l1.8-2l-21.5-19.5c0.6-0.6,1.1-1.2,1.7-1.8l21.5,19.5l1.8-2L336,247.4c0.6-0.7,1.2-1.3,1.8-2
		l21.5,19.5l1.8-2l-21.5-19.5c0.6-0.7,1.2-1.3,1.8-2l21.5,19.5l1.8-2l-21.5-19.5c0.6-0.6,1.1-1.2,1.7-1.8l21.5,19.5l1.8-2
		l-21.5-19.5c0.4-0.5,0.9-1,1.3-1.4l21.5,19.5l1.8-2l-21.5-19.5c0.6-0.7,1.2-1.3,1.8-2l21.5,19.5l1.8-2l-21.5-19.5
		c0.5-0.6,1.1-1.2,1.7-1.8l21.5,19.5l1.8-2l-21.5-19.5c0.6-0.7,1.2-1.3,1.8-2l21.5,19.5l1.8-2l-21.5-19.6c0.6-0.7,1.2-1.3,1.8-2
		l21.5,19.5l1.8-2l-21.5-19.5c0.6-0.6,1.1-1.2,1.7-1.8l21.5,19.5l1.8-2l-21.5-19.5c0.5-0.5,0.9-1,1.4-1.6l21.5,19.5l1.8-2
		l-21.5-19.5c0.5-0.6,1.1-1.2,1.6-1.8l21.5,19.5l1.8-2l-21.5-19.5c0.5-0.5,1-1.1,1.5-1.6l21.5,19.5l1.8-2l-21.5-19.5
		c0.6-0.7,1.2-1.3,1.8-2l21.5,19.5l1.8-2l-21.5-19.5c0.6-0.6,1.1-1.2,1.7-1.8l21.5,19.5l1.8-2l-21.5-19.5c0.6-0.7,1.2-1.3,1.8-2
		l21.5,19.5l1.8-2l-21.5-19.5c0.6-0.7,1.2-1.3,1.8-2l21.5,19.5l1.8-2l-21.5-19.5c0.6-0.6,1.1-1.2,1.7-1.8l21.5,19.5l1.8-2
		l-21.5-19.5c0.5-0.5,0.9-1,1.3-1.4l21.5,19.5l1.8-2l-21.5-19.6c0.7-0.7,1.2-1.4,1.8-2l21.5,19.5l1.8-2l-21.5-19.5
		c0.9-1,1.4-1.6,1.4-1.6c0.1-0.1,0.1-0.1,0.2-0.2l21.5,19.5l1.8-2l-21.5-19.5c0.6-0.7,1.2-1.3,1.8-2l21.5,19.5l1.8-2l-21.5-19.5
		c0.6-0.7,1.2-1.4,1.8-2l21.5,19.5l1.8-2L412,163.9c0.6-0.7,1.2-1.3,1.7-1.8l21.5,19.5l1.8-2l-21.5-19.5c0.5-0.6,1-1.1,1.5-1.5
		l21.4,19.5l1.8-2l-21-19.1c0.8-0.5,1.7-0.9,2.5-1.3l20.3,18.4l1.8-2l-19-17.2c1.3-0.2,2.6-0.2,3.9,0l16.8,15.3l1.8-2l-13.1-11.9
		c4.8,1.8,10.1,5,15.8,9c0.8,0.5,1.5-0.1,0.9-1c-11.6-17.8-36.2-23.2-45.8-12.6c-2,2.3-6.4,7.1-12.1,13.3c0,0-35.1,38.5-60.6,66.6
		c-1.1,1.2-2.1,2.3-3.1,3.4c-10.5,11.6-19,20.9-21.9,24.1l-24.8,27.3c-0.1,0-0.3-0.1-0.4-0.1c-0.7-0.2-2-0.7-3.8-1.4l-75.9-161.1
		L244,264.6c0,0,0.4,1.3,1,3.6c-51.3-26.9-131.5-78.4-131.5-78.4s136.3,119,141.1,123c0.2,1.2,0.5,2.3,0.8,3.5L161.1,420l3,2.7
		l94-97.6c8.4,23.6,25.4,48.3,7.6,61c0,0.1,0,0.2,0,0.2c-16,11.3-19.5,35.1-7.5,54c12.4,19.5,36.4,26.4,53.5,15.5
		c10.5-6.7,15.8-20.3,19.9-33.3c-3.5-10.5-6.4-14.2-11.2-21.7c-3.1-4.9-7-9-11.3-12.2c-9.3-8.9-36.6-75-33.8-81.1
		c33.2-0.5,75.7,25.3,80.5,49.4c0,0,0.1-0.1,0.2-0.1c0.8,9.3,4.6,18.1,11.2,25c13.4,14,34.4,17,49.9,7.1c2-1.3,4-2.8,5.7-4.5
		c6.3-6,10-14,11-22.7c3.6-1.3,8.9-2.6,13.8-1.4c18.3,4.8,23.3-10.3,23.7-15C471.7,340.8,445.2,354,432.4,345.4z M253.5,296.4
		c-2.4-3.7-1.3-8.7,2.5-11c3.7-2.4,8.7-1.3,11,2.5c2.4,3.7,1.3,8.7-2.5,11C260.8,301.2,255.8,300.1,253.5,296.4z M286,392.9
		c0.9,0.1,1.9,0.2,2.8,0.3c7.9,1.3,15.8,6.3,21,14.4c8.6,13.6,6.4,30.5-4.8,37.6c-11.3,7.2-27.5,2-36.1-11.6
		c-8.6-13.6-6.4-30.5,4.8-37.6C277.4,393.6,281.6,392.8,286,392.9z M414.2,375.3c-1.2,1.1-2.4,2.1-3.7,3c-10.5,6.6-24.8,4.5-34-5.2
		c-5.2-5.4-8-12.4-8.1-19.5c-0.1-7.1,2.6-13.6,7.6-18.3c1.2-1.1,2.4-2.1,3.7-2.9c10.5-6.7,24.8-4.5,34,5.2c5.2,5.4,8,12.4,8.1,19.6
		C421.8,364.1,419.1,370.7,414.2,375.3z"/>
</g>
<g display="none">
	<g display="inline">
		<rect x="257.1" y="298.9" fill="#882D1E" width="26" height="3.1"/>
		<rect x="257.1" y="291.2" fill="#882D1E" width="32.1" height="3"/>
		<rect x="257.1" y="307.8" fill="#882D1E" width="16.1" height="3"/>
		<rect x="257.1" y="267.8" fill="#882D1E" width="19.2" height="10.5"/>
		<circle fill="#882D1E" cx="287.1" cy="313.6" r="8.5"/>
		<polygon fill="#882D1E" points="287.1,326.3 294,335.1 297.3,326.4 306.4,325.2 299.5,316.5 		"/>
		<polygon fill="#882D1E" points="265.2,320.4 273.8,323.7 275,332.9 283.7,326 273.9,313.6 		"/>
		<path fill="#882D1E" d="M266.6,323.8h-15.7v-18.5l7.4-19.2h24.8v-3h-26v1.5l-6.2-5.5v-24.5h32.5l-0.1,13.2h14v47l2.6-1.8l1.2,1.5
			v-50.4h0l0.1-0.1l-14-13v-0.1h-40.1v25l-47.8-42.3l-45-2l-3.5,104.7l3.3-0.1l3.2,59.6l-3.8,42.7h-1.1v11.1h32.7h0.8h32.7v-11.1
			h-5.7l0.2-48.7l-7.7-54.4l1.9,0.1l-1.9-60.5l41.4,29.1v23.6h24.2l-0.3-2L266.6,323.8z M287.1,255.9l8.5,7.9h-8.6L287.1,255.9z
			 M185.8,438.3h-0.4h-5.6l3.3-45.5l-0.8-42.1l5,43.2L185.8,438.3z"/>
		<path fill="#882D1E" d="M333.4,148.3v7.3h4.7v16.7h-2.6v14.2h12v-14.2h-3.9v-16.7h7.7v23.6l2.3,0.7c-1.5,3.9-2.4,8.1-2.4,12.5
			c0,19.6,15.9,35.4,35.4,35.4c19.5,0,35.4-15.9,35.4-35.4c0-4.4-0.9-8.6-2.4-12.5l2.6-0.8v-23.6h15.9v-7.3H333.4z"/>
		<polygon fill="#882D1E" points="360.9,233 306.4,286.2 311.4,304.1 363.8,265 360.9,340.9 370.4,340.9 367.6,393.9 370,437.8 
			360.9,437.8 360.9,449.4 403,449.4 403,437.8 401,437.8 396.6,393.9 401.9,340.9 409.5,340.9 409.5,233 374.7,233 		"/>
		<path fill="#882D1E" d="M182,218.9c1.8,0.3,3.6,0.5,5.5,0.6c0.4,0,0.8,0.1,1.2,0.1c0.1,0,0.1,0,0.2,0c0.1,0,0.1,0,0.2,0
			c0.1,0,0.2,0,0.2,0c0.1,0,0.2,0,0.2,0c22.8,0,41.4-18.5,41.4-41.4c0-2.6-0.4-5.2-0.9-7.7c-3.3-19.9-20.5-35-41.3-35
			c-23.2,0-42.1,18.8-42.1,42C146.6,198.5,161.9,215.7,182,218.9z"/>
	</g>
</g>
<g>
	<path fill="#882D1E" d="M163,276.6c-10.1-4.9-17.6-11.8-22.6-20.7c-5-8.9-7.5-19.3-7.5-31.2c0-19.4,6.7-35.4,20.2-47.9
		c13.4-12.5,29.9-18.8,49.3-18.8c19.2,0,35.3,6.7,48.4,20c13.1,13.3,19.6,29.6,19.6,48.8c0,10.8-2.8,20.8-8.2,30
		c-5.5,9.2-13,15.8-22.6,19.8c13.1,5.8,23.7,15.1,31.9,27.7c8.2,12.6,12.3,26.3,12.3,41c0,22.7-8.2,41.9-24.7,57.7
		s-36.1,23.7-58.7,23.7c-22,0-41-7.9-57.2-23.8c-16.1-15.9-24.2-35.1-24.2-57.5c0-14.5,4.1-28.3,12.3-41.6
		C139.3,290.6,149.9,281.6,163,276.6z M200.9,290.7c-15.7,0-28.9,5.4-39.8,16.3c-10.9,10.9-16.3,24.1-16.3,39.8
		c0,15.4,5.4,28.4,16.1,38.9c10.8,10.5,23.8,15.8,39.3,15.8c16.1,0,29.8-5.4,40.9-16.3c11.1-10.9,16.7-24.1,16.7-39.8
		c0-15.7-5.6-28.7-16.7-39.1C229.9,295.9,216.6,290.7,200.9,290.7z M202.3,183.4c-11.7,0-21.9,3.7-30.5,11.2
		c-8.7,7.5-13,17.1-13,28.8c0,12.4,4.1,22.6,12.5,30.7c8.3,8.1,18.6,12.1,31,12.1c11,0,20.7-4.1,29.3-12.5
		c8.5-8.3,12.8-17.9,12.8-28.9c0-11.7-4.1-21.5-12.3-29.5C223.9,187.3,214,183.4,202.3,183.4z"/>
	<path fill="#882D1E" d="M292.1,322.9v-67.3c0-14,1.4-26.2,4.2-36.5c2.8-10.3,8.2-20.3,16.1-30.2c16.8-20.6,39-30.9,66.6-30.9
		c26,0,47.2,9.4,63.8,28.1c8.4,9.1,14.4,19.5,17.9,31c3.5,11.6,5.3,24.4,5.3,38.4v67.3c0,15.4-1.1,27.9-3.2,37.5
		c-2.8,12.6-8.1,24-15.8,34c-18,21.5-40.7,32.3-68,32.3c-26.7,0-48.9-10.3-66.6-30.9c-8.2-9.8-13.6-20.5-16.3-32.1
		C293.4,352.2,292.1,338.6,292.1,322.9z M440.1,318.7v-56.8c0-14.3-0.9-25.4-2.8-33.3c-1.9-7.9-4.7-14.6-8.4-20
		c-5.1-7.5-12.4-13.6-21.7-18.2c-9.4-4.7-18.7-7-28.1-7c-10.5,0-20.6,2.6-30.2,7.9c-9.6,5.3-16.8,12.5-21.7,21.6
		c-3.3,5.8-5.6,13.1-7,21.7c-1.4,8.7-2.1,17.8-2.1,27.4v56.8c0,13.3,0.6,24.4,1.9,33.3c1.3,8.9,4.4,17,9.3,24.2
		c12.2,16.8,28.8,25.3,49.8,25.3c23.1,0,40.4-9.6,51.9-28.8c3.7-6.5,6.2-14.3,7.4-23.3C439.5,340.4,440.1,330.2,440.1,318.7z"/>
</g>
</svg>
